SplineFontDB: 3.2
FontName: OpenBus
FullName: OpenBus
FamilyName: OpenBus
Weight: Regular
Copyright: Copyright (c) 2023, Lianna Eeftinck
UComments: "Recreation of the Airbus 320 series panel font as found on most engraved panels. Made from manually tracing the characters of the decals sheet and cross checking various references.+AAoACgAA(Going by a full cockpit reference video, newer panels appear to be using a different font)."
Version: 
ItalicAngle: 0
UnderlinePosition: 0
UnderlineWidth: 40
Ascent: 1638
Descent: 410
InvalidEm: 0
LayerCount: 2
Layer: 0 0 "Back" 1
Layer: 1 0 "Fore" 0
XUID: [1021 124 -35355327 28098]
FSType: 0
OS2Version: 0
OS2_WeightWidthSlopeOnly: 0
OS2_UseTypoMetrics: 0
CreationTime: 1691355622
ModificationTime: 1691482057
PfmFamily: 17
TTFWeight: 400
TTFWidth: 5
LineGap: 184
VLineGap: 184
OS2TypoAscent: 0
OS2TypoAOffset: 1
OS2TypoDescent: 0
OS2TypoDOffset: 1
OS2TypoLinegap: 184
OS2WinAscent: 0
OS2WinAOffset: 1
OS2WinDescent: 0
OS2WinDOffset: 1
HheadAscent: 0
HheadAOffset: 1
HheadDescent: 0
HheadDOffset: 1
OS2Vendor: 'PfEd'
Lookup: 258 0 0 "'kern' Horizontal Kerning in Latin lookup 0" { "'kern' Horizontal Kerning in Latin lookup 0-1" [180,0,2] } ['kern' ('latn' <'dflt' > ) ]
MarkAttachClasses: 1
DEI: 91125
KernClass2: 73 63 "'kern' Horizontal Kerning in Latin lookup 0-1"
 24 exclam 1 H I M N d i bar
 20 quotedbl quotesingle
 10 numbersign
 6 dollar
 7 percent
 9 ampersand
 9 parenleft
 12 parenright O
 8 asterisk
 4 plus
 12 comma period
 6 hyphen
 5 slash
 3 0 9
 1 2
 5 3 8 B
 1 4
 1 5
 3 6 S
 3 7 V
 17 colon semicolon x
 4 less
 5 equal
 7 greater
 8 question
 2 at
 1 A
 1 C
 1 D
 1 E
 1 F
 1 G
 3 J U
 1 K
 1 L
 1 P
 1 Q
 1 R
 1 T
 1 W
 1 X
 1 Y
 1 Z
 11 bracketleft
 9 backslash
 12 bracketright
 11 asciicircum
 10 underscore
 5 grave
 1 a
 1 b
 3 c s
 1 e
 1 f
 3 g u
 1 h
 1 j
 1 k
 1 l
 3 m n
 1 o
 1 p
 1 q
 1 r
 1 t
 3 v w
 1 y
 1 z
 9 braceleft
 10 braceright
 10 asciitilde
 7 onehalf
 44 exclam B D E F H I K L M N P R b h i k l bar

StartChar: .notdef
Encoding: 0 0 0
Width: 1137
VWidth: 1844
Flags: HW
HStem: -87 84<454.153 617.016> 235 49<469.519 598.789> 1359 80<361.885 741.398>
VStem: 58 369<19.3594 212.844 304.564 395 395.028 689.647> 58 136<981.812 1198.65> 405 292<978.016 1095.39> 644 424<20.8533 210.891 308.802 413 413.02 553.969> 913 155<846.715 1197.51>
LayerCount: 2
Fore
SplineSet
58 1439 m 1xe9
 1068 1439 l 1
 1068 -87 l 1
 58 -87 l 1
 58 1439 l 1xe9
562 1359 m 0
 478 1359 402 1348 337 1305 c 0
 272 1265 225 1192 201 1116 c 0
 197 1103 194 1091 194 1078 c 0
 194 1024 225 981 268 965 c 0
 278 961 291 959 303 959 c 0
 350 959 391 993 405 1040 c 0
 417 1078 427 1089 445 1100 c 0
 463 1111 499 1123 560 1123 c 0
 611 1123 648 1109 666 1096 c 0
 684 1083 697 1071 697 1022 c 0xed
 697 973 684 949 633 893 c 0
 582 837 503 770 454 653 c 0
 427 588 423 531 423 482 c 0
 423 433 425 395 425 395 c 1
 425 334 476 284 533 284 c 0
 535 284 539 284 541 284 c 0
 596 284 641 341 641 404 c 0
 641 406 641 411 641 413 c 2
 641 413 639 440 639 476 c 0
 639 512 650 554 650 554 c 0
 670 603 723 655 786 725 c 0
 849 795 913 900 913 1042 c 0
 913 1145 857 1239 788 1291 c 0
 719 1343 640 1359 562 1359 c 0
533 235 m 0
 474 235 427 181 427 116 c 0
 427 58 468 -3 535 -3 c 0
 594 -3 644 51 644 116 c 0xf2
 644 174 600 235 533 235 c 0
EndSplineSet
Validated: 1
EndChar

StartChar: exclam
Encoding: 33 33 2
Width: 436
VWidth: 1644
Flags: HW
HStem: -9 244<110.99 299.01>
VStem: 83 244<19.0649 207.829 332.971 1361.46>
LayerCount: 2
Fore
SplineSet
205 -9 m 0
 144 -9 83 39 83 116 c 0
 83 184 137 235 205 235 c 0
 266 235 327 193 327 114 c 0
 327 46 273 -9 205 -9 c 0
207 303 m 0
 139 303 85 358 85 426 c 2
 85 1269 l 2
 85 1337 139 1391 207 1391 c 0
 275 1391 329 1337 329 1269 c 2
 329 426 l 2
 329 358 275 303 207 303 c 0
EndSplineSet
Validated: 1
EndChar

StartChar: percent
Encoding: 37 37 3
Width: 1300
VWidth: 1648
Flags: HW
HStem: -12 158<805.254 968.638> 355 158<804.471 973.523> 863 158<291.944 455.058> 1232 158<293.442 463.128> 1367 20G<888 908.5>
VStem: 110 158<1043.51 1207.56> 483 158<1047.75 1212.31> 623 158<166.497 331.37> 994 158<174.471 335.314>
LayerCount: 2
Fore
SplineSet
887 513 m 1xe580
 1031 513 1152 397 1152 246 c 0
 1152 107 1028 -12 873 -12 c 0
 727 -12 623 116 623 255 c 0
 623 390 734 513 887 513 c 1xe580
887 355 m 0
 822 355 781 295 781 253 c 0
 781 202 827 146 880 146 c 0
 943 146 994 207 994 246 c 0
 994 316 947 355 887 355 c 0
377 1390 m 1xf680
 521 1390 641 1274 641 1123 c 2
 641 984 518 863 363 863 c 0
 217 863 110 993 110 1132 c 0
 110 1267 224 1390 377 1390 c 1xf680
377 1232 m 0
 312 1232 268 1172 268 1130 c 0
 268 1079 317 1021 370 1021 c 0
 433 1021 483 1084 483 1123 c 0
 483 1193 437 1232 377 1232 c 0
904 1387 m 0xec80
 913 1387 925 1385 934 1380 c 0
 964 1368 978 1338 978 1308 c 0
 978 1299 978 1290 973 1281 c 2
 398 41 l 2
 386 11 356 -8 326 -8 c 0
 317 -8 307 -8 298 -3 c 0
 268 9 245 40 245 72 c 0
 245 81 244 91 249 100 c 2
 829 1339 l 2
 841 1369 872 1387 904 1387 c 0xec80
EndSplineSet
Validated: 1
EndChar

StartChar: 0
Encoding: 48 48 4
Width: 1172
VWidth: 1642
Flags: HW
HStem: 2 244<483.488 698.189> 1136 230<472.468 716.799>
VStem: 193 248<286.908 1096.62> 745 241<293.895 1100.37>
LayerCount: 2
Fore
SplineSet
193 1023 m 2
 193 1262 396 1366 592 1366 c 0
 804 1366 986 1233 986 1039 c 2
 986 376 l 2
 986 146 783 2 587 2 c 0
 391 2 193 131 193 372 c 2
 193 1023 l 2
592 1136 m 0
 518 1136 441 1104 441 1007 c 2
 441 372 l 2
 441 307 510 246 587 246 c 0
 684 246 745 324 745 376 c 2
 745 1014 l 2
 745 1091 686 1136 592 1136 c 0
EndSplineSet
Validated: 1
EndChar

StartChar: 1
Encoding: 49 49 5
Width: 719
VWidth: 1648
Flags: HW
HStem: -12 21G<455.5 524.5> 1360 20G<490.5 534.5>
VStem: 371 249<19.5788 1046>
LayerCount: 2
Fore
SplineSet
502 1380 m 0
 567 1380 620 1322 620 1255 c 2
 620 111 l 2
 620 42 559 -12 490 -12 c 0
 421 -12 371 44 371 113 c 2
 371 1046 l 1
 251 979 l 2
 230 967 210 963 189 963 c 0
 145 963 104 986 83 1025 c 0
 74 1043 67 1064 67 1085 c 0
 67 1129 90 1170 131 1193 c 2
 435 1364 l 2
 456 1376 479 1380 502 1380 c 0
EndSplineSet
Validated: 1
EndChar

StartChar: 2
Encoding: 50 50 6
Width: 970
VWidth: 1648
Flags: HW
HStem: 2 249<445 855.587> 980 21G<167 202.5> 1132 246<351.808 596.62>
VStem: 643 253<887.682 1086.52>
LayerCount: 2
Fore
SplineSet
468 1378 m 0
 618 1378 780 1312 854 1176 c 0
 882 1118 896 1054 896 990 c 0
 896 916 877 842 838 780 c 0
 723 591 576 428 445 251 c 1
 707 251 l 2
 769 251 762 251 806 244 c 0
 861 237 894 181 894 126 c 0
 894 91 882 60 857 37 c 0
 827 7 788 0 749 -0 c 0
 724 0 696 2 673 2 c 0
 507 2 341 2 175 2 c 0
 113 2 70 64 70 126 c 0
 70 147 74 168 86 186 c 0
 245 402 405 616 562 835 c 0
 592 883 643 934 643 994 c 0
 643 1006 643 1017 638 1029 c 0
 613 1098 543 1132 472 1132 c 0
 431 1132 388 1118 353 1095 c 0
 314 1056 281 1008 228 985 c 0
 219 983 207 980 198 980 c 0
 136 980 79 1043 79 1105 c 0
 79 1117 81 1127 86 1139 c 0
 141 1293 309 1378 468 1378 c 0
EndSplineSet
Validated: 1
EndChar

StartChar: 3
Encoding: 51 51 7
Width: 990
VWidth: 1648
Flags: HW
HStem: -11 247<338.991 580.846> 1139 240<350.302 566.734>
VStem: 631 247<283.24 498.917 886.256 1072.61>
LayerCount: 2
Fore
SplineSet
114 1194 m 0
 202 1319 324 1379 483 1379 c 0
 658 1379 876 1229 876 1012 c 0
 876 917 844 765 712 693 c 1
 818 631 878 511 878 396 c 0
 878 172 697 -11 478 -11 c 0
 236 -11 141 128 111 179 c 0
 99 200 93 222 93 243 c 0
 93 285 116 327 155 350 c 0
 173 362 192 366 208 366 c 0
 243 366 271 343 308 308 c 0
 350 266 396 236 474 236 c 0
 566 236 631 306 631 391 c 0
 631 456 608 523 442 576 c 0
 384 594 338 647 338 707 c 0
 338 762 388 804 453 818 c 0
 504 827 550 846 573 869 c 0
 596 892 619 922 619 998 c 0
 619 1063 534 1139 474 1139 c 0
 400 1139 340 1095 305 1049 c 0
 280 1014 245 998 208 998 c 0
 185 998 160 1005 139 1021 c 0
 107 1046 91 1084 91 1121 c 0
 91 1146 98 1171 114 1194 c 0
EndSplineSet
Validated: 1
EndChar

StartChar: 4
Encoding: 52 52 8
Width: 981
VWidth: 1648
Flags: HW
HStem: -15 740<564.971 749.889> 195 249<370 535> 1366 20G<520.5 554.5>
VStem: 535 244<13.5554 195 444 696.851>
LayerCount: 2
Fore
SplineSet
438 1310 m 2x70
 454 1351 492 1386 549 1386 c 0
 560 1386 573 1384 587 1382 c 0
 646 1368 676 1320 676 1269 c 0
 676 1253 674 1237 667 1221 c 2
 370 444 l 1
 535 444 l 1x70
 535 601 l 2
 535 670 590 725 658 725 c 0
 726 725 779 670 779 601 c 2
 779 439 l 1
 833 425 873 378 873 320 c 0
 873 262 833 214 779 200 c 1
 779 110 l 2
 779 41 726 -15 658 -15 c 0xb0
 590 -15 535 41 535 110 c 2
 535 195 l 1
 194 195 l 2
 124 195 71 252 71 317 c 0
 71 331 73 347 80 363 c 2
 438 1310 l 2x70
EndSplineSet
Validated: 1
EndChar

StartChar: 5
Encoding: 53 53 9
Width: 952
VWidth: 1664
Flags: HW
HStem: -5 243<355.711 551.852> 683 245<343.632 588.582> 1121 245<325 806.155>
VStem: 80 245<897 1121> 629 245<325.332 643.8>
LayerCount: 2
Fore
SplineSet
202 1366 m 2
 713 1366 l 2
 781 1366 833 1312 833 1244 c 0
 833 1176 781 1121 713 1121 c 2
 325 1121 l 1
 325 897 l 1
 375 915 430 928 491 928 c 0
 616 928 724 880 790 785 c 0
 849 699 874 594 874 474 c 0
 874 354 842 224 772 138 c 0
 702 52 599 -5 472 -5 c 0
 345 -5 168 120 107 202 c 0
 84 232 77 256 77 279 c 0
 77 320 107 354 141 379 c 0
 159 393 177 397 195 397 c 0
 231 397 268 377 300 345 c 0
 323 322 370 238 459 238 c 0
 548 238 629 356 629 472 c 0
 629 558 620 683 488 683 c 0
 388 683 318 624 286 592 c 0
 261 569 234 558 202 558 c 0
 186 558 171 561 155 568 c 0
 110 586 80 631 80 681 c 2
 80 1244 l 2
 80 1312 134 1366 202 1366 c 2
EndSplineSet
Validated: 1
EndChar

StartChar: 6
Encoding: 54 54 10
Width: 940
VWidth: 1648
Flags: HW
HStem: -4 242<362.666 579.655> 665 233<337.604 589.592> 1123 244<369.19 620.56>
VStem: 70 249<282.222 632.094 859 1072.37> 640 235<302.354 616.362>
LayerCount: 2
Fore
SplineSet
475 1367 m 0
 593 1367 751 1333 841 1182 c 0
 855 1159 863 1137 863 1112 c 0
 863 1074 843 1038 809 1013 c 0
 789 999 770 995 750 995 c 0
 714 995 678 1015 649 1051 c 0
 611 1096 578 1123 479 1123 c 0
 389 1123 332 1065 321 981 c 1
 321 954 316 911 316 859 c 1
 366 882 423 898 486 898 c 0
 712 898 875 730 875 448 c 0
 875 340 841 228 775 140 c 0
 709 50 592 -4 463 -4 c 0
 345 -4 242 48 179 120 c 0
 116 192 79 282 79 366 c 0
 79 486 70 626 70 732 c 0
 70 838 72 933 81 1010 c 0
 104 1204 269 1367 475 1367 c 0
493 665 m 0
 441 665 375 642 319 610 c 1
 319 409 l 2
 319 321 366 238 470 238 c 0
 576 238 640 332 640 450 c 0
 640 590 588 665 493 665 c 0
EndSplineSet
Validated: 1
EndChar

StartChar: 7
Encoding: 55 55 11
Width: 922
VWidth: 1648
Flags: HW
HStem: 1124 240<315 561>
VStem: 77 776<1134.31 1336.03> 77 238<944.761 1124>
LayerCount: 2
Fore
SplineSet
199 1364 m 2xc0
 732 1364 l 2
 802 1364 853 1310 853 1245 c 0xc0
 853 1232 851 1218 847 1205 c 2
 446 74 l 2
 428 25 381 -7 331 -7 c 0
 317 -7 305 -4 291 -0 c 0
 241 18 210 65 210 114 c 0
 210 127 213 141 217 154 c 2
 561 1124 l 1
 315 1124 l 1
 315 1037 l 1
 315 970 260 918 192 918 c 0
 124 918 77 974 77 1041 c 1xa0
 77 1248 l 1
 77 1313 134 1364 199 1364 c 2xc0
EndSplineSet
Validated: 1
EndChar

StartChar: 8
Encoding: 56 56 12
Width: 1001
VWidth: 1648
Flags: HW
HStem: -5 249<380.505 605.013> 566 249<393.241 601.25> 1131 247<380.545 596.746>
VStem: 82 255<289.569 507.897 866.69 1089.1> 650 258<289.326 517.153 860.499 1077.4>
LayerCount: 2
Fore
SplineSet
492 1378 m 0
 714 1378 905 1212 905 979 c 0
 905 824 879 794 793 688 c 1
 865 612 908 511 908 402 c 0
 908 171 712 -5 497 -5 c 0
 258 -5 82 182 82 385 c 0
 82 503 125 609 199 688 c 1
 125 764 84 882 84 993 c 0
 84 1178 270 1378 492 1378 c 0
488 1131 m 0
 390 1131 340 1058 340 977 c 0
 340 896 402 815 488 815 c 0
 574 815 650 875 650 965 c 0
 650 1055 586 1131 488 1131 c 0
492 566 m 0
 406 566 337 480 337 392 c 0
 337 304 409 244 495 244 c 0
 581 244 650 307 650 404 c 0
 650 501 578 566 492 566 c 0
EndSplineSet
Validated: 1
EndChar

StartChar: 9
Encoding: 57 57 13
Width: 1008
VWidth: 1648
Flags: HW
HStem: 5 244<387.152 623.305> 482 242<390.053 645.317> 1127 240<396.823 637.279>
VStem: 77 265<772.638 1071.76> 673 269<298.293 526 760.656 1092.15>
LayerCount: 2
Fore
SplineSet
99 1085 m 0
 146 1254 294 1367 512 1367 c 0
 737 1367 934 1223 938 1031 c 1
 938 871 942 713 942 553 c 0
 942 514 940 473 940 432 c 0
 940 363 933 297 903 233 c 0
 834 82 659 5 483 5 c 0
 334 5 191 86 114 203 c 1
 92 226 82 258 82 288 c 0
 82 329 101 368 141 391 c 0
 161 405 183 409 205 409 c 0
 262 409 319 372 351 329 c 0
 388 281 450 249 512 249 c 0
 534 249 557 252 577 261 c 0
 641 288 673 352 673 418 c 2
 673 526 l 1
 616 499 547 482 478 482 c 0
 424 482 367 491 322 514 c 0
 206 571 106 674 84 795 c 0
 79 832 77 870 77 907 c 0
 77 969 84 1028 99 1085 c 0
666 1028 m 0
 656 1083 611 1127 532 1127 c 0
 520 1127 508 1126 493 1124 c 0
 362 1103 342 1010 342 937 c 0
 342 862 359 765 441 731 c 0
 458 726 476 724 493 724 c 0
 557 724 621 754 673 784 c 1
 673 825 676 866 676 907 c 0
 676 948 673 987 666 1028 c 0
EndSplineSet
Validated: 1
EndChar

StartChar: colon
Encoding: 58 58 14
Width: 431
VWidth: 1648
Flags: HW
HStem: -4 254<127.689 311.155> 730 254<113.689 297.155>
VStem: 79 254<129.56 200.27 764.945 948.742> 93 254<30.9452 214.742>
LayerCount: 2
Fore
SplineSet
207 984 m 0xe0
 262 984 316 951 328 896 c 0
 330 884 333 875 333 863 c 0
 333 806 293 752 238 735 c 0
 226 730 214 730 205 730 c 0
 141 730 79 780 79 844 c 0
 79 918 133 984 207 984 c 0xe0
221 250 m 0
 276 250 330 217 342 162 c 0
 344 150 347 141 347 129 c 0
 347 72 307 18 252 1 c 0
 240 -4 228 -4 219 -4 c 0
 155 -4 93 46 93 110 c 0xd0
 93 184 147 250 221 250 c 0
EndSplineSet
Validated: 1
EndChar

StartChar: semicolon
Encoding: 59 59 15
Width: 413
VWidth: 1648
Flags: HW
HStem: 730 254<103.689 287.155>
VStem: 71 259<12.6271 206.717 771.758 950.958>
LayerCount: 2
Fore
SplineSet
197 984 m 0
 252 984 306 951 318 896 c 0
 320 884 323 875 323 863 c 0
 323 806 283 752 228 735 c 0
 216 730 204 730 195 730 c 0
 131 730 69 780 69 844 c 0
 69 918 123 984 197 984 c 0
202 246 m 0
 228 246 255 239 276 225 c 0
 314 201 330 156 330 113 c 0
 330 99 331 84 326 70 c 0
 316 -1 288 -64 240 -116 c 0
 221 -133 188 -175 157 -175 c 0
 150 -175 143 -173 136 -168 c 1
 136 -163 133 -161 133 -156 c 0
 133 -113 171 -37 171 -1 c 1
 171 -1 100 1 90 41 c 1
 76 60 71 85 71 106 c 0
 71 175 131 246 202 246 c 0
EndSplineSet
Validated: 1
EndChar

StartChar: less
Encoding: 60 60 16
Width: 838
VWidth: 1648
Flags: HW
VStem: 86 668
LayerCount: 2
Fore
SplineSet
636 1119 m 4
 704 1119 746 1063 746 1007 c 4
 746 977 734 947 706 927 c 4
 594 839 482 753 370 665 c 5
 458 599 548 531 636 465 c 4
 670 437 712 415 738 379 c 4
 750 363 754 345 754 327 c 4
 754 269 702 213 644 213 c 4
 624 213 602 221 582 237 c 4
 440 343 294 453 152 559 c 5
 112 581 86 627 86 671 c 4
 86 701 98 729 126 749 c 4
 252 847 378 945 504 1043 c 4
 546 1073 582 1119 636 1119 c 4
EndSplineSet
Validated: 1
EndChar

StartChar: equal
Encoding: 61 61 17
Width: 1042
VWidth: 1648
Flags: HW
HStem: 358 216<133.557 894.204> 762 216<139.557 892.761>
LayerCount: 2
Fore
SplineSet
225 978 m 4
 389 978 556 978 720 978 c 4
 826 978 826 978 846 972 c 4
 892 958 914 918 914 876 c 4
 914 820 876 762 808 762 c 4
 650 762 493 762 335 762 c 6
 191 762 l 5
 141 774 118 822 118 864 c 4
 118 920 157 978 225 978 c 4
219 574 m 4
 379 574 540 574 700 574 c 4
 701 574 729 574 772 574 c 4
 793 574 818 574 844 574 c 5
 904 569 916 514 916 472 c 4
 916 416 876 358 810 358 c 4
 650 358 489 358 329 358 c 4
 307 358 287 358 265 358 c 4
 185 358 l 4
 135 370 112 418 112 460 c 4
 112 516 151 574 219 574 c 4
EndSplineSet
Validated: 1
EndChar

StartChar: greater
Encoding: 62 62 18
Width: 826
VWidth: 1648
Flags: HW
VStem: 75 670
LayerCount: 2
Fore
SplineSet
195 219 m 4
 129 219 83 275 83 331 c 4
 83 361 97 391 125 411 c 4
 237 499 347 583 459 671 c 5
 375 735 289 799 205 863 c 4
 167 895 121 919 91 959 c 4
 79 977 75 993 75 1011 c 4
 75 1069 129 1123 187 1123 c 4
 207 1123 229 1115 249 1099 c 4
 395 989 541 881 687 771 c 5
 723 751 745 711 745 671 c 4
 745 639 731 609 703 589 c 4
 577 491 451 393 325 295 c 4
 283 265 249 219 195 219 c 4
EndSplineSet
Validated: 1
EndChar

StartChar: question
Encoding: 63 63 19
Width: 948
VWidth: 1648
Flags: HW
HStem: -11 239<377.206 558.889> 1129 244<346.848 624.069>
VStem: 346 242<15.2915 196.682 316.503 609.546> 649 239<926.057 1097.2>
LayerCount: 2
Fore
SplineSet
496 1373 m 0
 542 1373 588 1365 631 1354 c 0
 772 1327 888 1192 888 1051 c 0
 888 928 836 814 752 732 c 0
 702 675 633 629 599 561 c 0
 585 534 583 507 583 477 c 0
 583 461 585 440 585 424 c 0
 585 383 581 347 549 315 c 0
 526 292 497 281 467 281 c 0
 417 281 364 311 350 363 c 1
 345 397 341 432 341 468 c 0
 341 507 346 545 353 584 c 0
 380 723 492 817 588 910 c 1
 624 937 649 981 649 1024 c 0
 649 1047 642 1071 626 1092 c 1
 585 1126 532 1129 480 1129 c 0
 469 1129 457 1129 446 1129 c 1
 378 1129 332 1081 309 1024 c 0
 291 983 250 965 209 965 c 0
 173 965 134 980 111 1010 c 0
 95 1031 88 1056 88 1081 c 0
 88 1124 109 1172 134 1206 c 0
 207 1331 359 1373 496 1373 c 0
467 228 m 1
 535 228 588 169 588 105 c 0
 588 89 585 71 576 55 c 0
 558 12 513 -11 467 -11 c 0
 426 -11 387 8 364 44 c 0
 350 62 346 82 346 103 c 0
 346 165 399 228 467 228 c 1
EndSplineSet
Validated: 1
EndChar

StartChar: at
Encoding: 64 64 20
Width: 1410
VWidth: 1648
Flags: HW
HStem: -14 228<482.13 864.575> 299 226<604.817 725.128> 1140 228<496.958 900.833>
VStem: 79 228<387.854 940.916> 373 223<526.374 818.578> 772 221<559.333 790.669> 788 235<608.48 896> 1123 223<525.635 933.819>
LayerCount: 2
Fore
SplineSet
660 1368 m 0xfd
 817 1368 982 1332 1112 1236 c 0
 1288 1113 1346 887 1346 677 c 0
 1346 556 1317 421 1221 337 c 0
 1178 296 1121 278 1064 278 c 0
 1007 278 948 297 902 333 c 1
 884 356 867 367 849 367 c 0
 833 367 817 358 799 342 c 0
 756 312 705 299 653 299 c 0
 575 299 496 330 446 392 c 0
 378 479 373 588 373 695 c 0
 373 713 373 732 373 750 c 0
 373 864 439 975 544 1021 c 0
 592 1046 642 1056 694 1056 c 0
 756 1056 822 1042 881 1026 c 0
 959 1008 1023 937 1023 855 c 0xfb
 1023 784 993 716 993 645 c 0
 993 634 993 620 995 609 c 1
 995 575 1025 506 1057 506 c 0
 1066 506 1077 513 1086 527 c 1
 1109 591 1123 663 1123 734 c 0
 1123 821 1103 905 1055 976 c 0
 971 1088 827 1140 690 1140 c 0
 663 1140 635 1138 608 1133 c 0
 487 1117 387 1028 339 919 c 0
 314 862 307 803 307 741 c 0
 307 661 318 579 318 499 c 0
 318 392 404 305 491 253 c 1
 550 228 617 214 683 214 c 0
 717 214 752 219 786 226 c 1
 804 237 824 242 840 242 c 0
 904 242 952 178 952 116 c 0
 952 80 934 44 893 23 c 1
 827 -2 756 -14 685 -14 c 0
 587 -14 489 9 400 48 c 0
 231 126 116 301 95 488 c 0
 86 559 79 632 79 705 c 0
 79 837 102 967 170 1081 c 0
 270 1257 464 1368 660 1368 c 0xfd
660 832 m 1
 635 818 601 798 601 764 c 0
 601 721 596 686 596 650 c 0
 596 629 598 607 603 584 c 1
 603 543 626 525 651 525 c 0
 669 525 690 534 708 552 c 1
 765 566 772 608 772 654 c 0
 772 670 772 684 772 700 c 0xfd
 772 721 772 744 779 762 c 1
 786 773 788 784 788 791 c 0
 788 837 701 818 660 832 c 1
EndSplineSet
Validated: 1
EndChar

StartChar: A
Encoding: 65 65 21
Width: 1250
VWidth: 1648
Flags: HW
HStem: 289 245<387 714> 1366 20G<522 572>
LayerCount: 2
Fore
SplineSet
547 1386 m 1
 597 1386 644 1357 662 1311 c 2
 1136 163 l 2
 1143 147 1145 130 1145 114 c 0
 1145 66 1118 23 1072 2 c 0
 1056 -5 1042 -7 1026 -7 c 0
 978 -7 930 23 909 69 c 2
 817 289 l 1
 286 289 l 1
 199 69 l 2
 181 21 134 -7 86 -7 c 0
 70 -7 54 -5 38 2 c 0
 -8 20 -37 69 -37 117 c 0
 -37 133 -35 147 -28 163 c 2
 435 1311 l 2
 453 1357 497 1386 547 1386 c 1
549 937 m 1
 387 534 l 1
 714 534 l 1
 549 937 l 1
EndSplineSet
Validated: 1
EndChar

StartChar: B
Encoding: 66 66 22
Width: 1164
VWidth: 1648
Flags: HW
HStem: -2 245<352 771.035> 565 257<352 783.06> 1126 243<352 761.709>
VStem: 109 243<243 565 822 1126> 814 243<290.875 533.394 855.832 1077.53>
LayerCount: 2
Fore
SplineSet
548 1369 m 0
 566 1369 587 1369 605 1369 c 0
 643 1369 681 1369 719 1362 c 0
 872 1330 1016 1219 1048 1061 c 0
 1053 1029 1057 998 1057 966 c 0
 1057 865 1028 761 956 691 c 1
 1026 614 1064 502 1064 394 c 0
 1064 367 1062 340 1057 315 c 0
 1025 142 863 -2 692 -2 c 0
 586 -2 469 -2 359 -2 c 0
 339 -2 317 -2 294 -2 c 0
 206 -2 109 9 109 117 c 1
 109 1196 l 1
 109 1273 134 1367 229 1367 c 0
 335 1367 442 1369 548 1369 c 0
629 1126 m 2
 352 1126 l 1
 352 822 l 1
 492 822 l 1
 677 822 l 1
 740 822 814 869 814 937 c 0
 814 1011 803 1056 753 1094 c 0
 715 1121 690 1126 665 1126 c 0
 654 1126 643 1126 629 1126 c 2
679 570 m 0
 555 570 476 565 352 565 c 1
 352 243 l 1
 497 243 l 1
 524 243 553 243 582 243 c 0
 636 243 690 245 740 268 c 0
 794 288 823 353 823 412 c 1
 823 417 823 421 823 426 c 0
 823 494 760 570 679 570 c 0
EndSplineSet
Validated: 1
EndChar

StartChar: C
Encoding: 67 67 23
Width: 1102
VWidth: 1648
Flags: HW
HStem: -8 246<426.399 734.135> 1130 244<426.551 717.035>
VStem: 69 246<349.366 1017.91>
LayerCount: 2
Fore
SplineSet
544 1374 m 0
 729 1374 922 1294 1020 1134 c 0
 1031 1116 1036 1098 1036 1080 c 0
 1036 1012 968 954 904 954 c 0
 870 954 835 970 810 1009 c 1
 751 1084 653 1130 555 1130 c 0
 546 1130 534 1130 523 1128 c 1
 423 1105 322 1022 322 913 c 0
 322 820 315 726 315 633 c 0
 315 560 320 487 334 416 c 0
 352 297 477 238 589 238 c 0
 678 238 756 289 815 348 c 1
 840 382 875 398 911 398 c 0
 977 398 1045 347 1045 279 c 0
 1045 263 1043 245 1034 229 c 0
 998 167 931 127 874 86 c 0
 785 24 678 -8 571 -8 c 0
 464 -8 355 24 268 90 c 0
 143 179 74 332 74 482 c 0
 74 571 69 662 69 751 c 0
 69 833 74 916 85 998 c 0
 121 1212 330 1374 544 1374 c 0
EndSplineSet
Validated: 1
EndChar

StartChar: D
Encoding: 68 68 24
Width: 1108
VWidth: 1648
Flags: HW
HStem: -3 247<313 605.503> 1124 242<313 605.824>
VStem: 71 242<244 1124> 798 242<434.048 890.276>
LayerCount: 2
Fore
SplineSet
401 1366 m 0
 548 1366 699 1332 810 1233 c 0
 968 1093 1040 875 1040 663 c 0
 1040 602 1033 539 1022 480 c 0
 984 279 846 89 647 26 c 0
 561 1 470 -3 380 -3 c 0
 326 -3 272 -1 220 -1 c 1
 213 -1 209 -1 202 -1 c 0
 136 -1 71 44 71 110 c 0
 71 476 71 858 71 1224 c 0
 71 1231 68 1235 68 1242 c 0
 68 1301 111 1357 172 1366 c 0
 197 1366 224 1366 249 1366 c 0
 299 1366 349 1366 401 1366 c 0
398 1124 m 0
 313 1124 l 9
 313 244 l 2
 435 244 l 0
 625 244 746 386 774 483 c 0
 790 539 798 598 798 659 c 0
 798 799 753 944 654 1041 c 0
 588 1111 488 1124 398 1124 c 0
EndSplineSet
Validated: 1
EndChar

StartChar: E
Encoding: 69 69 25
Width: 1026
VWidth: 1648
Flags: HW
HStem: 1 242<302 902.105> 572 242<302 752.105> 1125 242<302 918.942>
VStem: 88 856<1146.94 1341.94> 88 838<24.1721 219.375> 88 214<243 572 814 1125>
LayerCount: 2
Fore
SplineSet
196 1367 m 1xf0
 794 1367 l 1
 842 1367 898 1365 926 1313 c 0xe8
 938 1295 944 1272 944 1250 c 0xf0
 944 1190 902 1125 846 1125 c 0
 664 1125 484 1125 302 1125 c 1
 302 814 l 1
 628 814 l 1
 676 814 730 812 758 760 c 0
 770 740 776 717 776 695 c 0
 776 635 736 572 680 572 c 0
 554 572 428 572 302 572 c 1
 302 243 l 1xe4
 778 243 l 1
 826 243 880 241 908 189 c 0
 920 169 926 146 926 124 c 0
 926 64 886 1 830 1 c 0
 626 1 420 1 216 1 c 0
 212 1 206 1 202 1 c 0
 146 1 88 45 88 108 c 0xe8
 88 480 88 854 88 1226 c 1
 88 1230 88 1237 88 1241 c 0
 88 1306 134 1367 196 1367 c 1xf0
EndSplineSet
Validated: 1
EndChar

StartChar: F
Encoding: 70 70 26
Width: 1076
VWidth: 1648
Flags: HW
HStem: 578 242<317 804.323> 1127 242<317 982.323>
VStem: 80 237<19.5745 578 820 1127>
LayerCount: 2
Fore
SplineSet
198 1369 m 2
 891 1369 l 2
 957 1369 1009 1315 1009 1248 c 0
 1009 1181 957 1127 891 1127 c 2
 317 1127 l 1
 317 820 l 1
 713 820 l 2
 779 820 831 766 831 699 c 0
 831 632 779 578 713 578 c 2
 317 578 l 1
 317 113 l 2
 317 46 264 -8 198 -8 c 0
 132 -8 80 46 80 113 c 2
 80 1248 l 2
 80 1315 132 1369 198 1369 c 2
EndSplineSet
Validated: 1
EndChar

StartChar: G
Encoding: 71 71 27
Width: 1138
VWidth: 1648
Flags: HW
HStem: -3 246<429.09 712.952> 542 246<563.502 813.985> 1128 244<440.253 733.391>
VStem: 86 251<338.512 1015.03> 535 520<568.735 759.022> 814 241<344.145 541.996>
LayerCount: 2
Fore
SplineSet
574 1372 m 0xf8
 738 1372 907 1294 998 1155 c 1
 1019 1132 1027 1103 1027 1073 c 0
 1027 1032 1007 989 968 968 c 0
 950 957 934 952 916 952 c 0
 864 952 813 991 786 1034 c 0
 738 1098 658 1128 580 1128 c 0
 559 1128 540 1126 519 1121 c 0
 407 1100 337 970 337 863 c 0
 337 744 337 631 337 512 c 0
 337 428 362 323 444 277 c 0
 480 254 524 243 567 243 c 0
 629 243 687 263 733 304 c 0
 795 350 811 428 811 501 c 1
 813 508 814 514 814 519 c 0xf4
 814 541 793 542 767 542 c 0
 764 542 761 542 758 542 c 0
 735 542 713 539 688 539 c 0
 640 539 594 546 562 587 c 0
 544 608 535 638 535 665 c 0
 535 724 574 785 633 785 c 0
 715 785 799 788 881 788 c 1
 890 790 902 790 911 790 c 0
 975 790 1044 758 1055 690 c 1
 1055 654 1055 614 1055 578 c 0
 1055 512 1052 448 1043 384 c 0
 1025 261 952 151 847 83 c 0
 765 26 665 -3 567 -3 c 0
 460 -3 354 31 270 97 c 0
 133 202 88 382 88 546 c 0
 88 608 86 669 86 733 c 0
 86 833 91 937 118 1030 c 0
 173 1228 367 1372 574 1372 c 0xf8
EndSplineSet
Validated: 1
EndChar

StartChar: H
Encoding: 72 72 28
Width: 1120
VWidth: 1648
Flags: HW
HStem: 545 244<324 798>
VStem: 80 244<22.6052 545 789 1338.69> 798 242<20.8822 545 789 1340.66>
LayerCount: 2
Fore
SplineSet
202 1370 m 0
 263 1370 321 1320 321 1259 c 0
 321 1101 324 947 324 789 c 1
 482 789 640 789 798 789 c 1
 798 927 798 1062 798 1200 c 0
 798 1254 800 1315 852 1347 c 0
 872 1361 895 1368 918 1368 c 0
 979 1368 1040 1322 1040 1259 c 0
 1040 893 1040 529 1040 163 c 0
 1040 109 1040 46 988 14 c 0
 968 0 946 -6 923 -6 c 0
 862 -6 798 39 798 102 c 0
 798 249 798 398 798 545 c 1
 640 545 482 545 324 545 c 1
 324 416 324 292 324 163 c 0
 324 109 321 46 269 14 c 0
 249 0 227 -6 204 -6 c 0
 143 -6 80 39 80 102 c 0
 80 477 80 853 80 1228 c 1
 80 1233 80 1236 80 1243 c 0
 80 1306 132 1370 202 1370 c 0
EndSplineSet
Validated: 1
EndChar

StartChar: I
Encoding: 73 73 29
Width: 444
VWidth: 1648
Flags: HW
HStem: -13 21G<186 225> 1359 20G<180.5 248.5>
VStem: 89 255<17.4895 1348.26>
LayerCount: 2
Fore
SplineSet
215 1379 m 1
 282 1379 344 1326 344 1262 c 0
 344 885 344 507 344 130 c 0
 344 125 344 119 344 114 c 0
 344 61 313 10 261 -6 c 0
 247 -11 232 -13 218 -13 c 0
 154 -13 89 35 89 102 c 0
 89 482 89 861 89 1241 c 0
 89 1246 89 1250 89 1255 c 0
 89 1322 146 1379 215 1379 c 1
EndSplineSet
Validated: 1
EndChar

StartChar: J
Encoding: 74 74 30
Width: 872
VWidth: 1648
Flags: HW
HStem: 10 238<290.175 479.488>
VStem: 531 240<302.364 1343.24>
LayerCount: 2
Fore
SplineSet
651 1373 m 1
 711 1373 768 1326 768 1266 c 0
 768 1002 771 738 771 474 c 0
 771 327 728 172 608 81 c 0
 546 34 471 10 393 10 c 0
 302 10 209 43 140 105 c 0
 104 132 73 176 73 223 c 0
 73 236 78 250 82 263 c 0
 100 312 149 338 198 338 c 0
 231 338 264 325 286 296 c 0
 308 265 346 248 384 248 c 0
 402 248 419 251 437 258 c 0
 499 291 531 369 531 436 c 0
 531 702 531 969 531 1235 c 1
 531 1239 531 1245 531 1249 c 0
 531 1313 584 1373 651 1373 c 1
EndSplineSet
Validated: 1
EndChar

StartChar: K
Encoding: 75 75 31
Width: 1128
VWidth: 1648
Flags: HW
VStem: 104 229<17.9865 457 796 1344.25>
LayerCount: 2
Fore
SplineSet
219 1370 m 0
 283 1370 333 1316 333 1249 c 2
 333 796 l 1
 854 1336 l 2
 875 1358 904 1372 934 1372 c 0
 964 1372 994 1358 1015 1336 c 0
 1036 1314 1047 1282 1047 1253 c 0
 1047 1222 1036 1191 1013 1166 c 2
 631 767 l 1
 1007 193 l 2
 1022 173 1029 148 1029 123 c 0
 1029 85 1012 46 980 24 c 0
 961 8 937 2 914 2 c 0
 878 2 842 20 821 54 c 2
 467 596 l 1
 333 457 l 1
 333 112 l 2
 333 45 283 -7 219 -7 c 0
 155 -7 104 45 104 112 c 2
 104 1249 l 2
 104 1316 155 1370 219 1370 c 0
EndSplineSet
Validated: 1
EndChar

StartChar: L
Encoding: 76 76 32
Width: 917
VWidth: 1648
Flags: HW
HStem: 0 242<304 810.239> 1347 20G<149.5 216.5>
VStem: 62 775<27.5745 216.246> 62 242<242 1340.24>
LayerCount: 2
Fore
SplineSet
183 1367 m 0xd0
 250 1367 304 1315 304 1248 c 2
 304 242 l 1xd0
 718 242 l 2
 785 242 837 188 837 121 c 0
 837 54 785 0 718 0 c 2
 183 0 l 2
 116 0 62 54 62 121 c 2xe0
 62 1248 l 2
 62 1315 116 1367 183 1367 c 0xd0
EndSplineSet
Validated: 1
EndChar

StartChar: M
Encoding: 77 77 33
Width: 1358
VWidth: 1648
Flags: HW
VStem: 120 244<25.5407 762> 1008 244<23.6582 767>
LayerCount: 2
Fore
SplineSet
233 1370 m 0
 280 1370 325 1348 348 1307 c 2
 680 681 l 1
 1024 1307 l 2
 1047 1348 1087 1373 1130 1373 c 0
 1139 1373 1150 1370 1159 1368 c 0
 1213 1354 1252 1306 1252 1250 c 2
 1252 118 l 2
 1252 50 1198 -4 1130 -4 c 0
 1062 -4 1008 50 1008 118 c 2
 1008 767 l 1
 786 367 l 2
 766 329 723 304 678 304 c 0
 633 304 592 329 572 367 c 2
 364 762 l 1
 364 118 l 2
 364 50 308 -4 240 -4 c 0
 172 -4 120 50 120 118 c 2
 120 1250 l 2
 120 1313 170 1370 233 1370 c 0
EndSplineSet
Validated: 1
EndChar

StartChar: N
Encoding: 78 78 34
Width: 1141
VWidth: 1648
Flags: HW
VStem: 90 245<28.0818 836> 811 245<532 1342.63>
LayerCount: 2
Fore
SplineSet
931 1371 m 0
 992 1371 1054 1323 1054 1262 c 0
 1054 917 1056 573 1056 228 c 0
 1056 208 1056 188 1056 165 c 0
 1056 131 1054 95 1040 63 c 0
 1020 22 976 -1 933 -1 c 0
 894 -1 859 15 836 47 c 0
 668 310 503 573 335 836 c 1
 335 614 335 389 335 167 c 0
 335 113 332 52 280 20 c 0
 260 6 238 -1 215 -1 c 0
 154 -1 90 45 90 108 c 0
 90 453 90 797 90 1142 c 0
 90 1167 88 1191 88 1214 c 0
 88 1246 90 1276 104 1305 c 0
 124 1348 167 1371 212 1371 c 0
 248 1371 285 1355 308 1323 c 0
 476 1060 643 795 811 532 c 1
 811 763 811 997 811 1228 c 1
 811 1233 811 1239 811 1244 c 0
 811 1310 861 1371 931 1371 c 0
EndSplineSet
Validated: 1
EndChar

StartChar: O
Encoding: 79 79 35
Width: 1157
VWidth: 1648
Flags: HW
HStem: -6 242<422.401 689.218> 1122 244<422.722 684.912>
VStem: 69 246<361.553 999.183> 794 242<358.772 1008.31>
LayerCount: 2
Fore
SplineSet
543 1366 m 0
 649 1366 767 1355 848 1280 c 0
 972 1162 1036 987 1036 822 c 0
 1036 788 1036 754 1036 720 c 0
 1036 573 1031 426 984 286 c 0
 939 150 819 46 681 12 c 0
 640 1 595 -6 552 -6 c 0
 412 -6 270 55 186 173 c 0
 91 313 69 492 69 657 c 0
 69 847 82 1054 204 1210 c 0
 281 1318 414 1366 543 1366 c 0
550 1122 m 1
 541 1122 l 1
 444 1122 367 1045 340 957 c 0
 320 887 315 814 315 742 c 0
 315 674 320 605 320 537 c 0
 320 435 354 313 453 259 c 0
 485 243 521 236 557 236 c 0
 598 236 638 246 674 266 c 0
 769 332 792 456 792 562 c 0
 792 618 794 675 794 731 c 0
 794 812 790 891 767 968 c 0
 740 1061 647 1122 550 1122 c 1
EndSplineSet
Validated: 1
EndChar

StartChar: P
Encoding: 80 80 36
Width: 1121
VWidth: 1648
Flags: HW
HStem: 561 247<298 732.149> 1126 244<298 724.339>
VStem: 56 242<25.0637 561 808 1126> 770 240<854.761 1069.63>
LayerCount: 2
Fore
SplineSet
175 1370 m 2
 611 1370 l 2
 615 1370 619 1370 623 1370 c 0
 778 1354 887 1284 945 1197 c 0
 1003 1110 1010 1020 1010 977 c 1
 1010 911 1004 829 952 742 c 0
 900 655 802 564 665 564 c 0
 661 564 658 561 654 561 c 2
 298 561 l 1
 298 119 l 2
 298 50 242 -5 175 -5 c 0
 108 -5 56 50 56 119 c 2
 56 685 l 1
 56 1247 l 2
 56 1316 108 1370 175 1370 c 2
298 1126 m 1
 298 808 l 1
 647 808 l 2
 710 815 728 835 746 867 c 0
 764 899 770 950 770 968 c 0
 770 995 764 1032 746 1059 c 0
 728 1086 701 1115 602 1126 c 1
 298 1126 l 1
EndSplineSet
Validated: 1
EndChar

StartChar: Q
Encoding: 81 81 37
Width: 1216
VWidth: 1648
Flags: HW
HStem: 2 244<417.325 677.609> 1128 244<430.297 681.997>
VStem: 78 235<379.431 997.87> 804 231<509.582 993.381>
LayerCount: 2
Fore
SplineSet
546 1372 m 0
 650 1372 754 1343 838 1282 c 0
 971 1187 1019 1017 1035 861 c 1
 1035 678 1029 479 991 305 c 1
 1032 262 1082 224 1116 174 c 0
 1127 156 1131 138 1131 120 c 0
 1131 57 1077 -4 1009 -4 c 0
 937 -4 898 59 851 102 c 1
 767 36 661 2 555 2 c 0
 462 2 368 30 291 82 c 0
 149 179 78 355 78 518 c 0
 78 563 78 610 78 660 c 0
 78 807 85 960 137 1096 c 0
 200 1261 370 1372 546 1372 c 0
553 1128 m 0
 449 1128 356 1044 338 945 c 0
 322 864 313 775 313 689 c 0
 313 623 318 558 327 495 c 0
 341 405 372 294 469 258 c 0
 498 251 530 246 562 246 c 0
 603 246 643 253 679 271 c 1
 629 323 573 373 526 427 c 0
 512 447 505 470 505 493 c 0
 505 554 551 615 614 615 c 0
 675 615 720 579 756 536 c 0
 767 522 781 509 788 509 c 1
 788 529 804 676 804 701 c 0
 804 841 801 913 756 1001 c 0
 718 1076 632 1128 553 1128 c 0
EndSplineSet
Validated: 1
EndChar

StartChar: R
Encoding: 82 82 38
Width: 1170
VWidth: 1648
Flags: HW
HStem: 564 246<337 549> 1127 242<337 771.511>
VStem: 91 246<22.0649 564 810 1127> 818 244<842.21 1071.06>
LayerCount: 2
Fore
SplineSet
214 1371 m 1
 214 1371 647 1369 652 1369 c 0
 812 1369 937 1284 996 1197 c 0
 1055 1110 1062 1022 1062 979 c 1
 1062 913 1057 831 1005 744 c 0
 969 682 905 623 821 591 c 1
 1067 181 l 2
 1078 160 1085 140 1085 117 c 0
 1085 76 1062 35 1026 12 c 0
 1008 1 985 -4 964 -4 c 0
 923 -4 880 16 857 55 c 2
 549 564 l 1
 337 564 l 1
 337 117 l 2
 337 49 282 -6 214 -6 c 0
 146 -6 91 49 91 117 c 2
 91 687 l 1
 91 1248 l 2
 91 1316 146 1371 214 1371 c 1
337 1127 m 1
 337 810 l 1
 693 810 l 2
 757 817 775 837 793 869 c 0
 811 901 818 951 818 969 c 1
 818 996 811 1034 793 1061 c 0
 775 1088 750 1116 650 1127 c 1
 337 1127 l 1
EndSplineSet
Validated: 1
EndChar

StartChar: S
Encoding: 83 83 39
Width: 1162
VWidth: 1648
Flags: HW
HStem: 4 242<407.635 748.901> 1127 242<407.17 731.398>
VStem: 92 246<854.303 1062.12> 813 240<305.536 513.938>
LayerCount: 2
Fore
SplineSet
566 1369 m 0
 713 1369 864 1312 975 1215 c 0
 1013 1186 1048 1139 1048 1089 c 0
 1048 1071 1043 1052 1032 1034 c 0
 1012 993 969 973 926 973 c 0
 890 973 854 987 831 1014 c 1
 759 1082 661 1127 562 1127 c 0
 537 1127 514 1125 489 1118 c 0
 417 1102 338 1051 338 967 c 0
 338 906 370 840 433 829 c 0
 535 804 641 825 743 802 c 0
 874 784 1005 698 1034 562 c 0
 1045 515 1053 465 1053 415 c 0
 1053 331 1032 248 980 180 c 0
 892 58 736 4 587 4 c 0
 551 4 514 6 480 13 c 0
 362 38 246 83 153 162 c 0
 117 189 89 235 89 280 c 0
 89 298 94 316 103 334 c 0
 121 377 162 395 205 395 c 0
 237 395 268 383 293 363 c 0
 374 295 479 246 587 246 c 0
 668 246 761 272 804 347 c 1
 811 367 813 388 813 411 c 0
 813 447 803 485 776 512 c 1
 668 589 528 562 404 587 c 0
 253 607 124 732 101 883 c 1
 96 908 92 933 92 958 c 0
 92 1082 155 1204 257 1276 c 0
 345 1344 455 1369 566 1369 c 0
EndSplineSet
Validated: 1
EndChar

StartChar: T
Encoding: 84 84 40
Width: 870
VWidth: 1648
Flags: HW
HStem: 1127 243<-54.2731 226 467 758.159>
VStem: 226 241<22.8822 1127>
LayerCount: 2
Fore
SplineSet
37 1370 m 0
 219 1370 402 1370 584 1370 c 0
 602 1370 620 1370 638 1370 c 0
 683 1370 727 1365 759 1325 c 0
 777 1305 786 1278 786 1249 c 0
 786 1191 748 1130 690 1130 c 0
 616 1130 541 1127 467 1127 c 1
 467 805 467 484 467 162 c 0
 467 108 465 48 413 16 c 0
 393 2 370 -4 348 -4 c 0
 287 -4 226 41 226 104 c 0
 226 446 226 785 226 1127 c 1
 174 1127 123 1127 71 1127 c 0
 17 1127 -44 1136 -71 1190 c 0
 -80 1208 -87 1226 -87 1244 c 0
 -87 1307 -31 1370 37 1370 c 0
EndSplineSet
Validated: 1
EndChar

StartChar: U
Encoding: 85 85 41
Width: 1186
VWidth: 1648
Flags: HW
HStem: -5 243<444.809 749.482> 1345 20G<940 981> 1345 20G<940 981>
VStem: 109 242<350.75 1337.1> 832 242<324.833 1336.97>
LayerCount: 2
Fore
SplineSet
230 1368 m 0xd8
 290 1368 351 1318 351 1257 c 0
 351 1030 351 805 351 578 c 0
 351 468 369 346 456 272 c 1
 494 247 536 238 581 238 c 0
 621 238 662 245 698 254 c 0
 792 283 832 389 832 479 c 0
 832 717 832 959 832 1197 c 0
 832 1251 834 1313 886 1345 c 0xb8
 906 1359 929 1365 951 1365 c 0
 1011 1365 1072 1320 1072 1257 c 0
 1072 1012 1074 764 1074 519 c 0
 1074 364 1032 198 904 101 c 0
 814 33 702 -5 590 -5 c 0
 523 -5 454 9 391 38 c 0
 219 114 111 304 111 488 c 0
 111 733 109 981 109 1226 c 1
 109 1230 109 1235 109 1242 c 0
 109 1305 161 1368 230 1368 c 0xd8
EndSplineSet
Validated: 1
EndChar

StartChar: V
Encoding: 86 86 42
Width: 1170
VWidth: 1648
Flags: HW
VStem: 92 231<1178.18 1323.92>
LayerCount: 2
Fore
SplineSet
956 1372 m 0
 1022 1372 1075 1313 1075 1252 c 0
 1075 1243 1075 1234 1073 1225 c 0
 965 881 854 541 746 197 c 0
 726 145 716 86 684 41 c 0
 661 12 628 0 594 0 c 0
 547 0 499 26 481 73 c 0
 357 437 235 802 113 1166 c 0
 102 1193 92 1223 92 1252 c 0
 92 1277 99 1302 117 1325 c 0
 140 1357 176 1372 212 1372 c 0
 257 1372 305 1347 323 1302 c 0
 413 1038 502 773 590 509 c 1
 669 760 752 1013 831 1264 c 0
 842 1323 893 1372 956 1372 c 0
EndSplineSet
Validated: 1
EndChar

StartChar: W
Encoding: 87 87 43
Width: 1724
VWidth: 1648
Flags: HW
HStem: 1343 20G<837 879> 1346 20G<193 254 1493 1533.5>
VStem: 103 234<1122.73 1333.27>
LayerCount: 2
Fore
SplineSet
229 1366 m 0x60
 279 1366 321 1327 337 1282 c 0
 400 1044 463 802 526 564 c 1
 584 758 644 951 702 1145 c 0
 722 1203 730 1268 764 1320 c 0
 786 1349 820 1363 854 1363 c 0xa0
 904 1363 951 1336 969 1289 c 0
 1050 1044 1127 801 1208 556 c 1
 1361 1168 l 2
 1381 1233 1381 1320 1453 1354 c 0
 1469 1363 1484 1366 1502 1366 c 0
 1565 1366 1626 1310 1626 1242 c 0
 1626 1235 1626 1229 1624 1222 c 0
 1543 889 1457 558 1374 225 c 0
 1356 164 1352 99 1320 45 c 0
 1300 13 1264 -2 1228 -2 c 0
 1178 -2 1129 25 1113 72 c 0
 1027 328 944 585 861 841 c 1
 798 634 735 423 672 216 c 0
 650 158 645 90 609 38 c 0
 589 9 556 -2 522 -2 c 0
 470 -2 418 26 402 78 c 0
 303 447 209 823 112 1192 c 1
 105 1208 103 1221 103 1237 c 0
 103 1302 157 1366 229 1366 c 0x60
EndSplineSet
Validated: 1
EndChar

StartChar: X
Encoding: 88 88 44
Width: 1168
VWidth: 1648
Flags: HW
LayerCount: 2
Fore
SplineSet
225 1371 m 0
 264 1371 299 1351 322 1317 c 2
 588 911 l 1
 854 1315 l 2
 879 1351 914 1369 953 1369 c 0
 976 1369 1002 1363 1022 1349 c 0
 1058 1324 1076 1285 1076 1244 c 0
 1076 1221 1070 1196 1056 1176 c 2
 733 686 l 1
 1056 186 l 2
 1070 166 1076 141 1076 118 c 0
 1076 79 1058 41 1022 16 c 0
 1002 2 976 -4 953 -4 c 0
 914 -4 877 14 854 50 c 2
 586 463 l 1
 318 52 l 2
 293 16 257 -2 218 -2 c 0
 195 -2 170 4 150 18 c 0
 114 43 95 82 95 123 c 0
 95 146 102 171 116 191 c 2
 440 688 l 1
 118 1178 l 2
 104 1198 98 1223 98 1246 c 0
 98 1287 116 1326 152 1351 c 0
 172 1365 200 1371 225 1371 c 0
EndSplineSet
Validated: 1
EndChar

StartChar: Y
Encoding: 89 89 45
Width: 1160
VWidth: 1648
Flags: HW
VStem: 85 226<1239.11 1345.7> 447 242<26.0138 568.518>
LayerCount: 2
Fore
SplineSet
851 1310 m 0
 871 1348 912 1372 955 1372 c 0
 1023 1372 1079 1313 1079 1252 c 0
 1079 1236 1077 1221 1070 1207 c 0
 946 970 820 732 691 499 c 1
 691 388 689 276 689 165 c 0
 689 111 686 50 634 18 c 0
 614 4 592 -3 569 -3 c 0
 508 -3 447 45 447 108 c 0
 447 241 449 375 449 508 c 1
 341 723 229 940 121 1155 c 0
 103 1187 85 1223 85 1259 c 0
 85 1275 90 1292 101 1310 c 0
 121 1351 166 1374 209 1374 c 0
 250 1374 291 1356 311 1320 c 0
 401 1148 488 972 578 800 c 1
 668 970 761 1140 851 1310 c 0
EndSplineSet
Validated: 1
EndChar

StartChar: Z
Encoding: 90 90 46
Width: 1158
VWidth: 1648
Flags: HW
HStem: -0 242<431 1036.66> 1125 244<115.476 705>
LayerCount: 2
Fore
SplineSet
206 1369 m 0
 452 1369 696 1366 942 1366 c 0
 1008 1366 1055 1303 1055 1242 c 0
 1055 1222 1051 1201 1040 1183 c 0
 837 871 634 554 431 242 c 1
 587 242 740 242 896 242 c 0
 950 242 1011 242 1043 190 c 0
 1057 170 1064 147 1064 124 c 0
 1064 63 1018 0 955 -0 c 0
 702 0 446 0 193 -0 c 0
 127 0 80 63 80 124 c 0
 80 144 85 165 96 183 c 0
 299 495 502 813 705 1125 c 1
 551 1125 396 1125 242 1125 c 0
 188 1125 127 1134 100 1188 c 0
 89 1206 84 1224 84 1242 c 0
 84 1308 138 1369 206 1369 c 0
EndSplineSet
Validated: 1
EndChar

StartChar: a
Encoding: 97 97 47
Width: 1026
VWidth: 1648
Flags: HW
HStem: -1 242<356.458 656.044> 376 242<358.687 652.941> 738 238<349.284 634.221>
VStem: 100 240<250.799 365.194> 661 226<265.288 367.619 605 708.201>
LayerCount: 2
Fore
SplineSet
488 976 m 0
 568 976 650 967 721 927 c 0
 828 874 892 753 892 638 c 0
 892 525 890 414 890 301 c 0
 888 294 887 288 887 281 c 0
 887 243 908 210 939 190 c 1
 957 170 963 147 963 123 c 0
 963 70 926 17 877 -1 c 0
 868 -5 857 -6 848 -6 c 0
 806 -6 770 25 741 54 c 1
 677 32 611 14 544 5 c 0
 513 1 481 -1 450 -1 c 0
 357 -1 262 21 191 83 c 0
 129 136 100 218 100 298 c 0
 100 325 102 351 109 378 c 0
 129 482 213 567 315 596 c 0
 373 612 433 618 493 618 c 0
 546 618 602 612 655 605 c 1
 655 649 648 704 599 720 c 0
 563 731 526 738 490 738 c 0
 434 738 382 725 340 687 c 1
 316 656 278 636 240 636 c 0
 224 636 210 641 197 645 c 0
 148 661 120 709 120 758 c 0
 120 782 126 805 142 825 c 0
 229 920 359 976 488 976 c 0
477 376 m 0
 441 376 401 376 368 363 c 0
 350 352 340 322 340 298 c 0
 340 276 348 259 370 252 c 0
 397 243 426 241 455 241 c 0
 508 241 562 252 615 265 c 1
 655 265 661 289 661 316 c 0
 661 332 659 348 659 361 c 1
 599 372 537 376 477 376 c 0
EndSplineSet
Validated: 1
EndChar

StartChar: b
Encoding: 98 98 48
Width: 1012
VWidth: 1648
Flags: HW
HStem: -18 238<419.868 629.035> 736 242<427.186 653.114>
VStem: 109 238<281.734 673.315 918 1337.62> 673 240<305.787 715.168>
LayerCount: 2
Fore
SplineSet
228 1368 m 0
 292 1368 347 1313 347 1249 c 1
 347 918 l 1
 411 955 488 978 563 978 c 0
 622 978 679 964 732 938 c 0
 855 872 913 729 913 597 c 0
 913 566 913 538 913 507 c 0
 913 417 908 292 868 208 c 0
 824 107 741 17 631 -7 c 0
 602 -16 572 -18 543 -18 c 0
 466 -18 391 6 325 46 c 1
 303 11 270 -5 235 -5 c 0
 173 -5 109 42 109 112 c 1
 109 1200 l 1
 109 1277 136 1368 228 1368 c 0
670 628 m 0
 670 679 640 736 578 736 c 0
 571 736 565 735 556 733 c 0
 479 718 411 687 347 650 c 1
 347 312 l 1
 404 270 468 233 538 220 c 0
 542 220 545 220 549 220 c 0
 597 220 633 259 651 303 c 0
 669 362 673 451 673 513 c 0
 673 550 670 591 670 628 c 0
EndSplineSet
Validated: 1
EndChar

StartChar: c
Encoding: 99 99 49
Width: 994
VWidth: 1648
Flags: HW
HStem: 2 242<436.94 656.296> 733 242<403.905 635.753>
VStem: 88 237<321.22 655.37>
LayerCount: 2
Fore
SplineSet
550 975 m 0
 661 975 769 928 851 854 c 1
 886 832 904 793 904 755 c 0
 904 692 860 627 782 627 c 0
 711 627 672 708 605 726 c 0
 585 730 567 733 547 733 c 0
 498 733 450 719 408 697 c 1
 373 668 339 627 330 580 c 0
 328 553 325 527 325 500 c 0
 325 453 332 406 350 361 c 0
 363 316 398 285 436 258 c 0
 456 247 479 244 501 244 c 0
 528 244 554 249 578 253 c 0
 642 266 689 314 738 352 c 1
 756 361 771 365 789 365 c 0
 853 365 911 305 911 240 c 0
 911 218 905 195 889 175 c 0
 814 88 707 29 594 9 c 0
 570 5 545 2 521 2 c 0
 406 2 290 52 210 135 c 0
 108 236 88 385 88 524 c 0
 88 670 161 818 281 903 c 0
 361 955 457 975 550 975 c 0
EndSplineSet
Validated: 1
EndChar

StartChar: d
Encoding: 100 100 50
Width: 1012
VWidth: 1648
Flags: HW
HStem: -18 238<392.733 601.771> 736 242<368.578 594.814>
VStem: 109 240<305.787 715.168> 675 238<281.734 673.315 918 1337.62>
LayerCount: 2
Fore
SplineSet
794 1368 m 0
 886 1368 913 1277 913 1200 c 1
 913 112 l 1
 913 42 849 -5 787 -5 c 0
 752 -5 719 11 697 46 c 1
 631 6 556 -18 479 -18 c 0
 450 -18 420 -16 391 -7 c 0
 281 17 197 107 153 208 c 0
 113 292 109 417 109 507 c 0
 109 538 109 566 109 597 c 0
 109 729 167 872 290 938 c 0
 343 964 400 978 459 978 c 0
 534 978 611 955 675 918 c 1
 675 1249 l 1
 675 1313 730 1368 794 1368 c 0
351 628 m 0
 351 591 349 550 349 513 c 0
 349 451 353 362 371 303 c 0
 389 259 424 220 472 220 c 0
 476 220 479 220 483 220 c 0
 553 233 618 270 675 312 c 1
 675 650 l 1
 611 687 543 718 466 733 c 0
 457 735 451 736 444 736 c 0
 382 736 351 679 351 628 c 0
EndSplineSet
Validated: 1
EndChar

StartChar: e
Encoding: 101 101 51
Width: 1002
VWidth: 1648
Flags: HW
HStem: 4 232<381.008 702.33> 340 226<353.014 629.144> 748 234<388.171 654.98>
VStem: 87 266<295.185 605.906> 678 235<610.875 721.781>
LayerCount: 2
Fore
SplineSet
529 982 m 0
 676 982 837 906 894 765 c 0
 907 732 913 696 913 661 c 0
 913 589 888 520 835 470 c 0
 729 368 577 338 436 338 c 0
 427 338 407 340 392 340 c 0
 372 340 353 338 353 325 c 0
 353 321 355 314 362 305 c 0
 391 255 445 236 500 236 c 0
 511 236 520 236 531 238 c 1
 593 238 648 279 705 279 c 0
 727 279 747 275 769 258 c 0
 802 236 815 204 815 169 c 0
 815 117 784 64 729 49 c 1
 659 21 579 4 502 4 c 0
 429 4 357 19 293 56 c 0
 185 115 118 227 100 344 c 0
 91 394 87 446 87 498 c 0
 87 593 105 692 153 774 c 0
 228 904 377 982 529 982 c 0
529 748 m 0
 496 748 461 744 430 731 c 0
 362 707 338 631 329 566 c 1
 408 566 492 577 573 592 c 0
 613 599 678 618 678 668 c 1
 658 729 586 748 529 748 c 0
EndSplineSet
Validated: 1
EndChar

StartChar: f
Encoding: 102 102 52
Width: 938
VWidth: 1648
Flags: HW
HStem: 724 252<117.856 251 503 824.3> 1133 242<535.947 799.496>
VStem: 253 247<26.7914 726>
LayerCount: 2
Fore
SplineSet
665 1375 m 0
 679 1375 694 1371 708 1371 c 0
 787 1371 849 1311 849 1244 c 0
 849 1212 836 1179 801 1154 c 0
 769 1134 732 1132 695 1132 c 0
 685 1132 676 1133 666 1133 c 0
 638 1133 611 1132 584 1123 c 0
 515 1107 512 1036 503 978 c 1
 577 978 648 983 722 983 c 0
 727 983 731 983 736 983 c 0
 812 983 852 916 852 851 c 0
 852 791 819 736 750 736 c 0
 667 736 583 731 500 731 c 1
 500 521 500 313 500 103 c 1
 500 34 445 -1 385 -1 c 0
 320 -1 253 38 253 119 c 0
 253 322 251 523 251 726 c 1
 244 726 235 724 228 724 c 0
 156 724 82 766 82 849 c 0
 82 944 174 976 253 976 c 1
 253 1045 265 1117 293 1182 c 0
 353 1328 510 1375 665 1375 c 0
EndSplineSet
Validated: 1
EndChar

StartChar: g
Encoding: 103 103 53
Width: 1058
VWidth: 1648
Flags: HW
HStem: -407 242<371.971 659.393> 76 244<369.778 703.375> 736 244<377.925 723.08>
VStem: 83 242<364.722 682.062> 721 246<-97.3426 106 346.965 715.894>
LayerCount: 2
Fore
SplineSet
850 996 m 0
 909 996 969 951 969 892 c 0
 969 698 967 505 967 311 c 0
 967 268 967 223 967 178 c 0
 967 65 963 -50 922 -154 c 0
 875 -285 752 -381 614 -401 c 0
 585 -406 555 -407 526 -407 c 0
 393 -407 255 -365 167 -263 c 0
 131 -227 104 -168 104 -116 c 0
 104 -69 127 -25 183 -5 c 0
 199 2 212 4 226 4 c 0
 319 4 335 -138 434 -152 c 0
 466 -159 501 -165 535 -165 c 0
 573 -165 610 -158 642 -138 c 1
 712 -79 721 22 721 106 c 1
 655 88 588 76 520 76 c 0
 464 76 409 83 355 99 c 0
 231 133 133 238 104 365 c 0
 90 421 83 481 83 540 c 0
 83 642 106 743 169 824 c 0
 271 955 418 980 576 980 c 0
 642 980 748 955 748 955 c 1
 768 984 818 996 850 996 c 0
725 695 m 1
 669 727 603 736 517 736 c 0
 431 736 357 700 339 630 c 0
 330 596 325 562 325 528 c 0
 325 481 334 433 352 390 c 0
 386 320 474 320 542 320 c 0
 605 320 691 337 723 384 c 1
 723 488 725 591 725 695 c 1
EndSplineSet
Validated: 1
EndChar

StartChar: h
Encoding: 104 104 54
Width: 1026
VWidth: 1648
Flags: HW
HStem: 740 245<383.868 664.52>
VStem: 100 241<27.375 695.697 941 1343.37> 680 241<23.6281 719.906>
LayerCount: 2
Fore
SplineSet
220 1374 m 0
 278 1374 339 1329 339 1271 c 0
 339 1175 341 1037 341 941 c 1
 366 952 410 964 426 968 c 0
 471 979 520 985 571 985 c 0
 645 985 720 970 787 921 c 0
 881 856 925 742 925 633 c 0
 925 464 921 296 921 127 c 1
 921 123 921 116 921 112 c 0
 921 38 860 0 800 0 c 0
 740 0 680 37 680 120 c 0
 680 272 684 419 684 571 c 0
 684 575 684 580 684 584 c 0
 684 635 682 700 637 720 c 0
 606 733 575 740 542 740 c 0
 471 740 399 712 341 667 c 1
 341 591 l 2
 341 428 339 266 339 103 c 1
 339 36 285 2 227 2 c 0
 165 2 100 40 100 118 c 1
 100 1206 l 1
 100 1282 126 1374 220 1374 c 0
EndSplineSet
Validated: 1
EndChar

StartChar: i
Encoding: 105 105 55
Width: 482
VWidth: 1648
Flags: HW
HStem: 1027 262<144.59 339.29>
VStem: 114 260<28.125 931.831 1061.65 1254.29> 114 243<26.1494 162.593>
LayerCount: 2
Fore
SplineSet
374 1156 m 0xc0
 374 1088 314 1027 241 1027 c 0
 164 1027 114 1081 114 1156 c 0
 114 1229 164 1289 241 1289 c 0
 321 1289 374 1224 374 1156 c 0xc0
241 971 m 0
 309 971 367 913 367 845 c 1
 367 246 l 1
 367 218 370 190 370 164 c 0
 370 134 366 103 357 73 c 0xa0
 338 19 295 -5 248 -5 c 0
 182 -5 114 42 114 119 c 1
 114 807 l 1
 114 884 152 971 241 971 c 0
EndSplineSet
Validated: 1
EndChar

StartChar: j
Encoding: 106 106 56
Width: 704
VWidth: 1648
Flags: HW
HStem: 1018 240<391.531 576.469>
VStem: 364 240<-132.25 855.66 856 857.661 1045.18 1231.65>
LayerCount: 2
Fore
SplineSet
484 1258 m 0
 544 1258 604 1216 604 1138 c 0
 604 1071 551 1018 484 1018 c 0
 424 1018 364 1065 364 1140 c 0
 364 1207 417 1258 484 1258 c 0
484 976 m 0
 551 976 602 923 602 856 c 2
 602 856 595 389 595 114 c 0
 595 81 597 43 597 5 c 0
 597 -84 586 -179 522 -274 c 0
 460 -363 397 -376 324 -392 c 0
 262 -405 196 -410 196 -410 c 1
 129 -410 71 -361 71 -294 c 0
 71 -227 117 -170 184 -170 c 1
 184 -170 220 -170 260 -161 c 0
 360 -139 360 -77 360 114 c 0
 360 392 362 858 362 858 c 2
 362 925 417 976 484 976 c 0
EndSplineSet
Validated: 1
EndChar

StartChar: k
Encoding: 107 107 57
Width: 968
VWidth: 1648
Flags: HW
VStem: 106 238<27.1518 446 730 1342>
LayerCount: 2
Fore
SplineSet
225 1372 m 0
 289 1372 344 1317 344 1253 c 1
 344 730 l 1
 450 803 552 873 658 946 c 1
 680 966 705 974 729 974 c 0
 793 974 852 911 852 847 c 0
 852 818 841 787 812 765 c 0
 746 717 678 673 612 627 c 2
 573 600 l 1
 670 459 770 314 867 171 c 1
 878 153 883 136 883 118 c 0
 883 52 819 -3 755 -3 c 0
 722 -3 689 13 665 50 c 2
 377 464 l 1
 344 446 l 1
 344 334 342 213 342 101 c 0
 342 35 289 2 232 2 c 0
 170 2 106 40 106 117 c 1
 106 1207 l 1
 106 1282 133 1372 225 1372 c 0
EndSplineSet
Validated: 1
EndChar

StartChar: l
Encoding: 108 108 58
Width: 662
VWidth: 1648
Flags: HW
HStem: 0 244<341.522 567.621> 1346 20G<158 247>
VStem: 97 237<253.546 1338.5>
LayerCount: 2
Fore
SplineSet
215 1366 m 0
 279 1366 334 1314 334 1250 c 0
 334 1005 334 760 334 515 c 0
 334 476 331 443 331 404 c 0
 331 387 330 372 330 357 c 0
 330 332 332 309 343 283 c 0
 355 253 370 244 449 244 c 0
 453 244 458 244 463 244 c 0
 470 244 476 244 482 244 c 0
 516 244 543 241 571 195 c 0
 581 179 589 150 589 119 c 0
 589 70 569 17 508 7 c 0
 475 3 443 0 408 0 c 0
 340 0 272 11 217 50 c 0
 125 116 97 239 97 346 c 0
 97 611 97 880 97 1145 c 0
 97 1154 97 1162 97 1171 c 0
 97 1259 101 1366 215 1366 c 0
EndSplineSet
Validated: 1
EndChar

StartChar: m
Encoding: 109 109 59
Width: 1288
VWidth: 1648
Flags: HW
HStem: 744 237<346.885 525.925 797.936 953.13>
VStem: 89 233<27.502 713.925> 530 235<24.6997 707.43> 955 235<27.4327 742.986>
LayerCount: 2
Fore
SplineSet
454 981 m 1
 519 981 592 972 646 931 c 1
 657 916 668 909 679 909 c 0
 694 909 709 924 729 935 c 0
 792 965 851 978 906 978 c 0
 1072 978 1189 860 1189 749 c 0
 1189 581 1190 416 1190 248 c 0
 1190 221 1190 200 1190 182 c 0
 1190 101 1189 96 1182 69 c 0
 1165 21 1124 0 1080 -0 c 0
 1019 0 955 43 955 115 c 0
 955 305 955 496 955 686 c 0
 955 724 955 743 914 743 c 0
 855 743 802 710 765 669 c 1
 765 95 l 2
 765 30 714 -3 657 -3 c 0
 596 -3 530 37 530 113 c 2
 530 683 l 2
 530 709 520 739 498 739 c 0
 496 740 483 744 462 744 c 0
 429 744 377 733 325 680 c 1
 325 474 322 106 322 100 c 0
 322 35 267 2 213 2 c 0
 152 2 89 41 89 117 c 0
 89 348 89 579 89 810 c 1
 94 883 120 965 209 965 c 0
 233 965 259 953 283 931 c 1
 346 962 384 981 454 981 c 1
EndSplineSet
Validated: 1
EndChar

StartChar: n
Encoding: 110 110 60
Width: 984
VWidth: 1648
Flags: HW
HStem: 737 246<390.251 648.443>
VStem: 90 238<23.3151 684.394> 660 238<32.7654 723.31>
LayerCount: 2
Fore
SplineSet
210 991 m 0
 254 991 294 967 314 927 c 1
 365 954 423 969 481 976 c 0
 510 981 537 983 563 983 c 0
 775 983 898 830 898 621 c 0
 898 460 891 300 891 139 c 0
 891 85 869 28 818 8 c 1
 806 2 791 -1 775 -1 c 0
 720 -1 654 35 654 102 c 0
 654 289 660 430 660 643 c 0
 660 688 636 737 587 737 c 0
 494 737 403 708 328 659 c 1
 328 117 l 2
 328 25 246 -5 210 -5 c 0
 150 -5 90 42 90 104 c 0
 90 356 90 608 90 860 c 0
 90 929 141 991 210 991 c 0
EndSplineSet
Validated: 1
EndChar

StartChar: o
Encoding: 111 111 61
Width: 988
VWidth: 1648
Flags: HW
HStem: -1 239<374.785 592.937> 746 239<379.317 595.916>
VStem: 77 231<313.14 667.347> 661 233<315.455 675.147>
LayerCount: 2
Fore
SplineSet
473 985 m 0
 527 985 580 976 629 956 c 0
 742 912 828 810 864 693 c 0
 883 629 894 562 894 496 c 0
 894 394 871 290 822 202 c 0
 754 78 616 -1 477 -1 c 0
 449 -1 422 3 394 10 c 0
 268 39 163 140 118 264 c 0
 90 337 77 416 77 496 c 0
 77 584 94 672 133 752 c 0
 195 885 327 985 473 985 c 0
475 746 m 0
 385 746 334 655 317 575 c 0
 311 546 308 518 308 489 c 0
 308 420 325 350 364 295 c 0
 394 249 452 238 503 238 c 0
 565 238 612 293 633 348 c 0
 652 397 661 449 661 500 c 0
 661 560 648 620 618 673 c 0
 590 724 531 746 475 746 c 0
EndSplineSet
Validated: 1
EndChar

StartChar: p
Encoding: 112 112 62
Width: 998
VWidth: 1648
Flags: HW
HStem: -412 21G<177.5 256> 6 234<369.1 637.955> 742 238<421.503 628.693>
VStem: 104 240<-382.453 37 275.859 678.531> 668 237<268.255 704.417>
LayerCount: 2
Fore
SplineSet
224 -412 m 0
 131 -412 104 -324 104 -246 c 1
 104 849 l 1
 104 920 166 966 228 966 c 0
 261 966 295 948 317 915 c 1
 374 949 450 980 538 980 c 0
 565 980 594 977 623 970 c 0
 733 945 800 894 850 797 c 0
 884 730 905 603 905 475 c 0
 905 363 889 250 852 177 c 0
 803 80 695 6 586 6 c 0
 504 6 422 6 344 37 c 1
 344 -292 l 1
 344 -356 288 -412 224 -412 c 0
650 308 m 1
 666 370 668 449 668 513 c 0
 661 566 668 635 637 682 c 1
 622 720 582 742 543 742 c 0
 529 742 515 739 503 733 c 1
 445 715 393 684 344 648 c 1
 344 295 l 1
 399 270 477 240 542 240 c 0
 591 240 633 258 650 308 c 1
EndSplineSet
Validated: 1
EndChar

StartChar: q
Encoding: 113 113 63
Width: 972
VWidth: 1648
Flags: HW
HStem: -412 21G<722 800.5> 6 234<340.045 608.9> 742 238<348.833 555.974>
VStem: 73 237<268.255 704.417> 634 240<-382.453 37 275.859 678.531>
LayerCount: 2
Fore
SplineSet
754 -412 m 0
 690 -412 634 -356 634 -292 c 1
 634 37 l 1
 556 6 474 6 392 6 c 0
 283 6 175 80 126 177 c 0
 89 250 73 363 73 475 c 0
 73 603 94 730 128 797 c 0
 178 894 244 945 354 970 c 0
 383 977 412 980 439 980 c 0
 527 980 604 949 661 915 c 1
 683 948 717 966 750 966 c 0
 812 966 874 920 874 849 c 1
 874 -246 l 1
 874 -324 847 -412 754 -412 c 0
328 308 m 1
 345 258 387 240 436 240 c 0
 501 240 579 270 634 295 c 1
 634 648 l 1
 585 684 532 715 474 733 c 1
 462 739 449 742 435 742 c 0
 397 742 356 720 341 682 c 1
 310 635 317 566 310 513 c 0
 310 449 312 370 328 308 c 1
EndSplineSet
Validated: 1
EndChar

StartChar: r
Encoding: 114 114 64
Width: 946
VWidth: 1648
Flags: HW
HStem: 736 246<420.504 801.906>
VStem: 80 236<22.6322 652.524>
LayerCount: 2
Fore
SplineSet
209 978 m 0
 305 978 308 946 320 909 c 1
 364 931 398 943 426 952 c 0
 462 964 525 982 609 982 c 0
 656 982 711 976 771 960 c 0
 846 940 879 890 879 826 c 0
 879 771 849 718 785 718 c 0
 716 718 649 736 580 736 c 0
 483 736 398 684 327 630 c 1
 327 492 325 354 325 216 c 0
 325 92 325 92 316 67 c 0
 298 16 256 -7 210 -7 c 0
 148 -7 80 37 80 113 c 0
 80 352 84 596 84 835 c 0
 84 911 122 978 209 978 c 0
EndSplineSet
Validated: 1
EndChar

StartChar: s
Encoding: 115 115 65
Width: 926
VWidth: 1648
Flags: HW
HStem: 1 242<293.313 599.464> 745 235<322.416 621.428>
VStem: 74 232<623.477 718.855> 608 236<261.764 358.386>
LayerCount: 2
Fore
SplineSet
454 980 m 0
 558 980 659 955 752 906 c 0
 798 882 821 827 821 786 c 0
 821 778 821 772 819 765 c 0
 810 709 756 671 704 671 c 0
 642 671 591 745 465 745 c 0
 424 745 306 724 306 673 c 0
 306 587 454 636 669 571 c 0
 804 530 830 442 841 337 c 1
 843 327 844 316 844 304 c 0
 844 218 789 98 669 46 c 0
 595 15 517 1 439 1 c 0
 350 1 278 15 137 97 c 0
 79 128 65 183 65 215 c 0
 65 223 66 229 67 234 c 0
 74 282 121 335 179 335 c 0
 195 335 213 331 230 321 c 0
 282 293 362 243 443 243 c 0
 467 243 608 246 608 310 c 0
 608 375 484 375 445 375 c 0
 334 375 209 398 135 494 c 0
 96 546 74 613 74 680 c 0
 74 891 291 980 454 980 c 0
EndSplineSet
Validated: 1
EndChar

StartChar: t
Encoding: 116 116 66
Width: 890
VWidth: 1648
Flags: HW
HStem: -3 239<510.949 781.837> 740 239<82.4721 236 482 776.865>
VStem: 236 246<261.18 733 980 1341.08>
LayerCount: 2
Fore
SplineSet
359 1368 m 1
 418 1368 482 1322 482 1263 c 0
 482 1167 482 1126 482 979 c 1
 487 979 533 979 614 979 c 0
 703 979 806 979 806 867 c 0
 806 803 763 740 685 740 c 0
 617 740 550 740 482 740 c 1
 482 624 482 519 482 403 c 0
 482 357 503 260 536 253 c 0
 603 239 659 254 724 236 c 0
 781 220 808 173 808 123 c 0
 808 61 767 -3 696 -3 c 0
 563 -3 510 -3 443 18 c 1
 313 68 238 210 238 342 c 0
 238 477 236 598 236 733 c 1
 104 733 67 767 67 858 c 0
 67 860 67 863 67 865 c 0
 69 938 87 978 168 980 c 0
 175 980 190 980 236 980 c 1
 236 1060 236 1139 236 1219 c 0
 236 1297 266 1368 359 1368 c 1
EndSplineSet
Validated: 1
EndChar

StartChar: u
Encoding: 117 117 67
Width: 984
VWidth: 1648
Flags: HW
HStem: 3 246<339.557 597.749> 967 20G<205 240.5 760 808>
VStem: 90 238<262.69 953.042> 660 238<301.606 962.685>
LayerCount: 2
Fore
SplineSet
778 -5 m 0
 734 -5 694 19 674 59 c 1
 623 32 565 17 507 10 c 0
 478 5 451 3 425 3 c 0
 213 3 90 156 90 365 c 0
 90 526 97 685 97 846 c 0
 97 900 119 958 170 978 c 1
 182 984 197 987 213 987 c 0
 268 987 334 951 334 884 c 0
 334 697 328 555 328 342 c 0
 328 297 352 249 401 249 c 0
 494 249 585 278 660 327 c 1
 660 869 l 2
 660 961 742 991 778 991 c 0
 838 991 898 944 898 882 c 0
 898 630 898 378 898 126 c 0
 898 57 847 -5 778 -5 c 0
EndSplineSet
Validated: 1
EndChar

StartChar: v
Encoding: 118 118 68
Width: 956
VWidth: 1648
Flags: HW
HStem: 958 20G<151.5 213.5 739.5 786>
VStem: 78 228<786.007 953.991> 608 272<730.312 905.928>
LayerCount: 2
Fore
SplineSet
188 978 m 0
 239 978 288 947 306 901 c 0
 361 751 416 600 471 450 c 1
 515 565 564 680 608 795 c 0
 630 844 642 899 675 943 c 0
 697 970 725 980 754 980 c 0
 818 980 880 925 880 861 c 0
 880 848 878 832 871 817 c 0
 776 576 683 337 588 96 c 1
 575 36 517 -1 462 -1 c 0
 418 -1 374 23 356 74 c 0
 270 310 182 550 96 786 c 1
 85 808 78 832 78 856 c 0
 78 918 115 978 188 978 c 0
EndSplineSet
Validated: 1
EndChar

StartChar: w
Encoding: 119 119 69
Width: 1284
VWidth: 1648
Flags: HW
HStem: 962 20G<148 215 623 675.5 1074.5 1124>
VStem: 66 235<744.926 958.322> 1002 218<812.892 944.886>
LayerCount: 2
Fore
SplineSet
189 982 m 0
 241 982 288 944 301 895 c 0
 337 773 371 649 407 527 c 1
 445 640 481 753 519 866 c 1
 540 937 593 979 653 979 c 0
 698 979 740 955 758 897 c 0
 796 775 837 651 875 529 c 1
 897 604 920 683 942 758 c 0
 962 816 971 880 1002 933 c 0
 1024 964 1059 977 1090 977 c 0
 1158 977 1220 920 1220 859 c 0
 1220 847 1218 836 1213 824 c 1
 1144 587 1074 352 1005 115 c 1
 980 21 940 -1 877 -1 c 0
 830 -1 783 23 765 81 c 0
 725 210 682 340 642 469 c 1
 604 349 563 230 525 110 c 1
 494 21 451 -1 391 -1 c 0
 344 -1 299 25 283 83 c 0
 216 318 147 554 80 789 c 1
 70 818 66 845 66 869 c 0
 66 939 107 982 189 982 c 0
EndSplineSet
Validated: 1
EndChar

StartChar: x
Encoding: 120 120 70
Width: 946
VWidth: 1648
Flags: HW
HStem: 958 20G<723 791.5>
LayerCount: 2
Fore
SplineSet
759 978 m 0
 824 978 872 919 872 858 c 0
 872 838 868 818 857 801 c 0
 781 696 699 594 621 492 c 1
 678 420 732 346 789 274 c 0
 817 235 855 200 872 154 c 0
 876 143 878 130 878 119 c 0
 878 54 813 6 752 6 c 0
 719 6 689 18 667 51 c 0
 604 134 536 217 473 300 c 1
 434 248 394 197 355 145 c 0
 320 101 292 54 246 19 c 0
 226 6 210 1 190 1 c 0
 127 1 68 60 68 123 c 0
 68 145 77 171 94 191 c 0
 170 291 249 392 325 492 c 1
 273 560 222 624 170 692 c 0
 139 736 98 775 78 825 c 0
 74 836 72 849 72 860 c 0
 72 925 137 974 198 974 c 0
 231 974 261 961 283 928 c 0
 346 847 410 765 473 684 c 1
 519 745 567 806 613 867 c 0
 652 915 687 978 759 978 c 0
EndSplineSet
Validated: 1
EndChar

StartChar: y
Encoding: 121 121 71
Width: 995
VWidth: 1648
Flags: HW
HStem: -404 251<95.7173 354.051> 963 20G<787.5 817.5>
LayerCount: 2
Fore
SplineSet
848 976 m 0
 889 961 931 917 931 859 c 0
 931 846 929 834 925 820 c 2
 925 820 681 84 611 -127 c 0
 559 -284 439 -370 340 -393 c 0
 339 -393 291 -404 235 -404 c 0
 209 -404 182 -402 156 -395 c 1
 99 -381 62 -332 62 -278 c 0
 62 -228 102 -153 181 -153 c 0
 190 -153 217 -161 247 -161 c 0
 259 -161 271 -159 283 -156 c 0
 321 -147 353 -137 378 -56 c 0
 389 -15 416 81 416 81 c 1
 98 809 l 2
 92 824 89 839 89 854 c 0
 89 901 117 947 163 967 c 0
 177 973 193 976 209 976 c 0
 252 976 299 954 321 904 c 1
 529 416 l 1
 615 671 694 899 694 899 c 1
 714 952 764 983 811 983 c 0
 824 983 836 981 848 976 c 0
EndSplineSet
Validated: 1
EndChar

StartChar: z
Encoding: 122 122 72
Width: 1088
VWidth: 1648
Flags: HW
HStem: 0 242<492 962.588> 739 239<103.378 599>
LayerCount: 2
Fore
SplineSet
191 978 m 0
 869 977 l 0
 937 977 996 963 998 875 c 0
 998 874 998 873 998 872 c 0
 998 844 983 791 964 769 c 0
 807 594 649 417 492 242 c 1
 807 242 l 2
 814 242 820 242 827 242 c 0
 857 242 890 241 919 234 c 0
 971 216 994 173 994 130 c 0
 994 67 946 0 871 0 c 0
 664 0 455 0 248 0 c 1
 152 0 96 34 96 124 c 0
 96 149 105 175 128 200 c 0
 285 375 442 566 599 741 c 1
 265 739 l 2
 259 739 254 739 248 739 c 0
 166 739 88 748 84 841 c 0
 84 845 84 850 84 854 c 0
 84 934 120 978 191 978 c 0
EndSplineSet
Validated: 1
EndChar

StartChar: bracketleft
Encoding: 91 91 73
Width: 638
VWidth: 1648
Flags: HW
HStem: -90 264<360 523.072> 1245 261<360 532.407>
LayerCount: 2
Fore
SplineSet
437 1506 m 0
 514 1506 568 1438 568 1373 c 0
 568 1344 561 1316 539 1294 c 0
 505 1250 452 1245 401 1245 c 0
 386 1245 372 1245 360 1245 c 1
 360 887 360 534 360 176 c 1
 372 169 401 176 418 174 c 0
 423 174 427 174 432 174 c 0
 507 174 558 104 558 36 c 0
 558 -12 534 -58 478 -77 c 0
 442 -87 408 -90 372 -90 c 0
 341 -90 308 -87 277 -87 c 0
 195 -87 101 -56 101 41 c 0
 101 469 101 900 101 1328 c 0
 101 1410 132 1504 229 1504 c 0
 299 1504 367 1506 437 1506 c 0
EndSplineSet
Validated: 1
EndChar

StartChar: backslash
Encoding: 92 92 74
Width: 1002
VWidth: 1648
Flags: HW
VStem: 108 262<1227.45 1413.5> 671 241<-107.125 41.5291>
LayerCount: 2
Fore
SplineSet
671 -63 m 4
 486 389 298 839 115 1291 c 4
 110 1303 108 1315 108 1327 c 0
 108 1393 168 1455 233 1455 c 0
 242 1455 252 1453 261 1451 c 0
 324 1442 351 1383 370 1329 c 0
 548 894 727 459 905 21 c 0
 910 9 912 -2 912 -14 c 0
 912 -77 855 -138 792 -138 c 0
 780 -138 771 -139 759 -134 c 0
 722 -122 687 -98 671 -63 c 4
EndSplineSet
Validated: 1
EndChar

StartChar: bracketright
Encoding: 93 93 75
Width: 664
VWidth: 1648
Flags: HW
HStem: -92 261<126.6 297> 1242 266<143.485 297.002>
VStem: 297 261<169 1242.25>
LayerCount: 2
Fore
SplineSet
222 -92 m 0
 145 -92 89 -24 89 44 c 0
 89 73 98 104 125 128 c 0
 159 164 202 169 246 169 c 0
 263 169 280 169 297 169 c 1
 297 517 297 867 297 1215 c 0
 304 1242 292 1249 265 1244 c 0
 255 1242 249 1242 239 1242 c 0
 162 1242 101 1317 101 1387 c 0
 101 1431 122 1474 178 1496 c 0
 214 1506 249 1508 285 1508 c 0
 316 1508 348 1505 377 1505 c 0
 459 1505 558 1474 558 1375 c 0
 558 947 558 520 558 92 c 0
 558 10 529 -89 430 -89 c 0
 360 -89 292 -92 222 -92 c 0
EndSplineSet
Validated: 1
EndChar

StartChar: asciicircum
Encoding: 94 94 76
Width: 1134
VWidth: 1648
Flags: HW
HStem: 810 670
LayerCount: 2
Fore
SplineSet
1020 930 m 0
 1020 866 964 818 908 818 c 0
 878 818 850 830 828 860 c 0
 740 972 656 1084 568 1196 c 1
 504 1110 438 1024 374 938 c 0
 344 900 320 856 280 826 c 0
 262 814 244 810 228 810 c 0
 170 810 116 864 116 922 c 0
 116 944 124 964 140 984 c 0
 248 1128 354 1270 462 1414 c 1
 484 1454 528 1480 572 1480 c 0
 600 1480 630 1468 650 1440 c 0
 748 1314 846 1188 944 1062 c 0
 974 1020 1020 984 1020 930 c 0
EndSplineSet
Validated: 1
EndChar

StartChar: underscore
Encoding: 95 95 77
Width: 1112
VWidth: 1648
Flags: HW
HStem: -296 216<155.22 960.686>
LayerCount: 2
Fore
SplineSet
216 -80 m 0
 418 -80 620 -80 822 -80 c 0
 838 -80 856 -80 872 -80 c 0
 904 -80 934 -82 962 -102 c 0
 994 -122 1006 -152 1006 -184 c 0
 1006 -238 964 -296 900 -296 c 0
 698 -296 496 -296 294 -296 c 0
 274 -296 256 -298 236 -298 c 0
 208 -298 180 -294 154 -276 c 0
 124 -256 110 -226 110 -194 c 0
 110 -138 152 -80 216 -80 c 0
EndSplineSet
Validated: 1
EndChar

StartChar: grave
Encoding: 96 96 78
Width: 442
VWidth: 1648
Flags: HW
HStem: 946 426
VStem: 87 201<1081.79 1166.89>
LayerCount: 2
Fore
SplineSet
218 1372 m 4
 286 1372 341 1313 351 1248 c 4
 351 1243 351 1238 351 1231 c 4
 351 1187 326 1144 285 1125 c 4
 273 1115 242 1120 252 1098 c 4
 262 1052 288 1008 288 960 c 4
 288 941 267 934 252 946 c 4
 216 970 187 1004 160 1040 c 4
 133 1074 112 1112 102 1156 c 4
 95 1183 87 1214 87 1243 c 4
 87 1260 90 1275 97 1292 c 4
 116 1340 167 1372 218 1372 c 4
EndSplineSet
Validated: 1
EndChar

StartChar: braceleft
Encoding: 123 123 79
Width: 724
VWidth: 1648
Flags: HW
VStem: 241 242<140.977 436.389> 261 242<190.179 505.874 907.132 1258>
LayerCount: 2
Fore
SplineSet
510 1502 m 1x40
 557 1495 l 1
 613 1477 639 1434 639 1389 c 0
 639 1326 589 1258 517 1258 c 0
 512 1258 508 1258 503 1258 c 1
 503 1220 503 1182 503 1141 c 0
 503 1075 501 1008 487 942 c 0
 467 858 442 770 376 711 c 1
 385 682 465 641 474 587 c 1
 497 540 503 490 503 440 c 0x40
 503 363 487 284 487 209 c 1
 485 200 483 192 483 185 c 0x80
 483 122 591 150 618 87 c 1
 634 64 641 43 641 20 c 0
 641 -48 575 -105 503 -105 c 0x40
 483 -105 462 -100 444 -91 c 1
 349 -75 268 -1 252 94 c 0
 243 126 241 159 241 191 c 0x80
 241 277 261 361 261 447 c 0
 261 510 182 510 141 544 c 1
 80 578 42 645 42 713 c 0
 42 742 49 770 65 797 c 0
 94 858 159 880 218 903 c 1
 259 991 259 1088 259 1183 c 0
 259 1215 257 1249 257 1281 c 0
 257 1313 259 1346 270 1378 c 0
 308 1471 420 1502 510 1502 c 1x40
EndSplineSet
Validated: 1
EndChar

StartChar: bar
Encoding: 124 124 80
Width: 433
VWidth: 1648
Flags: HW
VStem: 99 229<-100.932 1470.09>
LayerCount: 2
Fore
SplineSet
215 1497 m 0
 273 1497 328 1452 328 1394 c 0
 328 940 328 489 328 35 c 0
 328 -16 328 -76 279 -106 c 0
 260 -119 238 -125 217 -125 c 0
 159 -125 99 -82 99 -22 c 0
 99 440 99 900 99 1362 c 1
 99 1366 99 1373 99 1377 c 0
 99 1439 149 1497 215 1497 c 0
EndSplineSet
Validated: 1
EndChar

StartChar: braceright
Encoding: 125 125 81
Width: 726
VWidth: 1648
Flags: HW
HStem: -93 245<102.457 203.233>
VStem: 208 241<152 500.868 901.207 1210.39> 226 241<974.471 1264.82>
LayerCount: 2
Fore
SplineSet
199 -93 m 0xc0
 113 -93 73 -35 73 26 c 0
 73 89 118 152 206 152 c 1
 206 181 206 213 206 242 c 0
 206 316 208 391 224 465 c 0
 244 548 267 638 332 696 c 1
 323 725 246 766 237 820 c 1
 215 870 208 919 208 971 c 0xc0
 208 1045 221 1122 221 1194 c 1
 223 1203 226 1211 226 1218 c 0xa0
 226 1283 120 1257 91 1315 c 1
 75 1340 68 1363 68 1385 c 0
 68 1455 136 1506 208 1506 c 0xc0
 226 1506 246 1504 264 1495 c 1
 358 1479 439 1402 455 1308 c 0
 464 1274 467 1241 467 1207 c 0xa0
 467 1124 449 1043 449 960 c 0
 449 897 526 897 566 863 c 1
 627 829 664 762 664 694 c 0
 664 665 658 638 642 611 c 0
 613 550 547 527 489 505 c 1
 449 417 446 320 446 226 c 0
 446 190 451 154 451 118 c 0
 451 89 448 59 437 30 c 0
 399 -62 289 -93 199 -93 c 0xc0
EndSplineSet
Validated: 1
EndChar

StartChar: asciitilde
Encoding: 126 126 82
Width: 1076
VWidth: 1648
Flags: HW
HStem: 235 544
LayerCount: 2
Fore
SplineSet
350 779 m 0
 406 779 464 761 510 729 c 0
 580 683 612 601 632 523 c 0
 642 501 650 451 678 451 c 0
 680 451 684 451 688 453 c 1
 732 479 748 531 772 573 c 0
 792 603 822 615 850 615 c 0
 908 615 966 567 966 507 c 0
 966 495 964 481 958 469 c 0
 926 389 874 313 798 267 c 0
 762 245 720 235 680 235 c 0
 604 235 530 269 486 333 c 0
 438 395 426 477 394 547 c 0
 388 559 380 563 372 563 c 0
 354 563 336 533 332 513 c 0
 326 455 272 421 220 421 c 0
 178 421 138 441 122 489 c 0
 118 501 116 513 116 525 c 0
 116 569 140 613 160 653 c 0
 198 723 268 779 350 779 c 0
EndSplineSet
Validated: 1
EndChar

StartChar: degree
Encoding: 176 176 83
Width: 698
VWidth: 1648
Flags: HW
HStem: 918 136<287.027 420.972> 1234 136<270.161 427.788>
VStem: 118 136<1066.68 1218.87> 438 136<1071.51 1222.4>
LayerCount: 2
Fore
SplineSet
346 1370 m 0
 392 1370 440 1356 478 1328 c 0
 540 1286 574 1214 574 1142 c 0
 574 1124 572 1108 568 1090 c 0
 546 998 462 918 368 918 c 0
 290 918 210 944 164 1006 c 0
 134 1046 118 1094 118 1144 c 0
 118 1178 124 1212 140 1242 c 0
 178 1318 260 1370 346 1370 c 0
348 1234 m 0
 312 1234 278 1210 262 1178 c 0
 256 1168 254 1156 254 1144 c 0
 254 1110 276 1076 306 1062 c 0
 318 1056 330 1054 342 1054 c 0
 374 1054 404 1072 422 1098 c 0
 432 1112 438 1128 438 1146 c 0
 438 1154 436 1164 434 1172 c 0
 426 1212 386 1234 348 1234 c 0
EndSplineSet
Validated: 1
EndChar

StartChar: onehalf
Encoding: 189 189 84
Width: 1124
VWidth: 1648
Flags: HW
HStem: 0 148<880 1048.6> 471 148<794.378 899.924> 1343 20G<718.5 774.5>
VStem: 187 152<-4.80154 151.927 741.291 1130> 650 177<1168.07 1330.47> 900 152<362.782 470.71>
LayerCount: 2
Fore
SplineSet
257 1351 m 4
 259 1351 264 1351 266 1351 c 4
 304 1351 339 1318 339 1278 c 4
 339 1130 338 980 338 832 c 5
 340 825 339 819 339 812 c 4
 339 763 293 729 250 729 c 4
 216 729 187 748 187 800 c 4
 187 910 187 1020 187 1130 c 5
 178 1126 169 1121 158 1121 c 4
 115 1121 71 1163 71 1206 c 4
 71 1228 83 1250 114 1266 c 4
 161 1295 203 1333 257 1351 c 4
753 1363 m 4
 796 1363 827 1325 827 1287 c 4
 827 1278 827 1269 823 1260 c 4
 666 870 501 450 344 60 c 5
 322 0 297 -10 259 -10 c 4
 221 -10 187 12 187 55 c 4
 187 64 187 76 191 87 c 4
 339 459 502 861 650 1233 c 4
 675 1282 684 1363 753 1363 c 4
862 619 m 4
 880 619 895 616 911 612 c 4
 994 594 1052 511 1052 428 c 4
 1052 401 1045 377 1034 352 c 5
 985 283 932 215 880 148 c 5
 911 148 943 148 974 148 c 4
 978 148 981 148 985 148 c 4
 1030 148 1057 105 1057 65 c 4
 1057 31 1038 0 998 0 c 4
 924 0 851 -2 777 -2 c 5
 770 -2 766 -4 759 -4 c 4
 707 -4 651 27 651 74 c 4
 651 87 656 103 667 121 c 4
 741 217 817 312 891 408 c 4
 898 417 900 426 900 433 c 4
 900 455 878 471 853 471 c 4
 840 471 826 464 817 453 c 4
 801 424 765 406 734 406 c 4
 696 406 662 428 662 475 c 5
 673 569 775 619 862 619 c 4
EndSplineSet
Validated: 1
EndChar

StartChar: period
Encoding: 46 46 85
Width: 431
VWidth: 1648
Flags: HW
HStem: -4 254<127.689 311.155>
VStem: 93 254<30.9452 214.742>
LayerCount: 2
Fore
SplineSet
221 250 m 0
 276 250 330 217 342 162 c 0
 344 150 347 141 347 129 c 0
 347 72 307 18 252 1 c 0
 240 -4 228 -4 219 -4 c 0
 155 -4 93 46 93 110 c 0
 93 184 147 250 221 250 c 0
EndSplineSet
Validated: 1
EndChar

StartChar: comma
Encoding: 44 44 86
Width: 413
VWidth: 1648
Flags: HW
HStem: -175 421<172.836 225.237>
LayerCount: 2
Fore
SplineSet
202 246 m 0
 228 246 255 239 276 225 c 0
 314 201 330 156 330 113 c 0
 330 99 331 84 326 70 c 0
 316 -1 288 -64 240 -116 c 0
 221 -133 188 -175 157 -175 c 0
 150 -175 143 -173 136 -168 c 1
 136 -163 133 -161 133 -156 c 0
 133 -113 171 -37 171 -1 c 1
 171 -1 100 1 90 41 c 1
 76 60 71 85 71 106 c 0
 71 175 131 246 202 246 c 0
EndSplineSet
Validated: 1
EndChar

StartChar: dollar
Encoding: 36 36 87
Width: 875
Flags: HW
VStem: 86 170<704.69 793.603> 334 208<-50.8056 112.139 312 436 694 783 1016.46 1198.63> 617 164<314.317 425.281>
LayerCount: 2
Fore
SplineSet
438 1242 m 0
 469 1242 500 1227 519 1200 c 0
 540 1171 543 1132 543 1093 c 0
 543 1074 543 1055 543 1037 c 0
 543 1030 543 1024 543 1017 c 1
 600 1004 661 978 711 943 c 0
 745 923 757 896 757 867 c 0
 757 839 746 810 732 783 c 1
 708 764 681 757 653 757 c 0
 617 757 579 768 542 783 c 1
 542 657 l 1
 542 657 617 632 645 618 c 0
 737 572 781 497 781 385 c 0
 781 384 781 382 781 381 c 0
 780 244 660 152 541 99 c 1
 539 61 540 49 536 23 c 0
 522 -21 509 -69 435 -72 c 0
 376 -67 351 -43 337 15 c 0
 336 40 334 56 333 94 c 1
 278 123 134 171 100 232 c 0
 90 251 86 269 86 287 c 0
 86 337 122 378 176 378 c 0
 177 378 179 378 180 378 c 0
 237 376 270 335 334 312 c 1
 334 456 l 1
 283 482 239 507 183 551 c 0
 126 600 86 660 86 750 c 0
 86 771 88 793 93 818 c 0
 122 941 231 1003 334 1030 c 1
 334 1106 l 2
 333 1111 333 1116 333 1121 c 0
 333 1183 378 1242 435 1242 c 0
 436 1242 437 1242 438 1242 c 0
334 799 m 1
 280 796 256 774 256 752 c 0
 256 727 285 701 334 694 c 1
 334 799 l 1
542 436 m 1
 542 301 l 1
 591 307 617 339 617 370 c 0
 617 401 593 431 542 436 c 1
EndSplineSet
Validated: 1
EndChar

StartChar: numbersign
Encoding: 35 35 88
Width: 1354
Flags: HW
HStem: 400 237<112.737 294 577 669 953 1232.94> 738 234<291.776 357 639 732 1014 1213.37> 1359 20G<576.5 610 923 982.5>
VStem: 242 239<27.4036 359.656> 451 244<1152.46 1344.75> 618 239<34.502 203.459> 834 237<1032.58 1356.02>
LayerCount: 2
Fore
SplineSet
562 1378 m 0xe8
 568 1379 574 1379 579 1379 c 0
 641 1379 695 1326 695 1264 c 0
 695 1262 695 1260 695 1258 c 0
 679 1155 657 1068 639 965 c 1
 776 961 l 1
 795 1063 815 1164 834 1266 c 0
 834 1342 893 1379 953 1379 c 0
 1012 1379 1071 1343 1071 1272 c 0
 1071 1269 1071 1266 1071 1263 c 0xea
 1055 1160 1033 1058 1014 955 c 1
 1055 954 1097 952 1138 951 c 0
 1141 951 1145 951 1148 951 c 0
 1219 951 1256 890 1256 830 c 0
 1256 772 1221 716 1148 716 c 0
 1145 716 1142 716 1139 716 c 0
 1082 718 1027 719 970 721 c 0
 964 692 959 663 953 634 c 1
 1138 633 l 2
 1142 633 1147 634 1151 634 c 0
 1221 634 1259 573 1259 513 c 0
 1259 455 1224 398 1149 398 c 0
 1147 398 1146 398 1144 398 c 0
 1065 398 987 399 908 399 c 1
 857 127 l 2
 857 126 857 125 857 124 c 0
 857 48 794 9 733 9 c 0
 675 9 618 44 618 115 c 0
 618 123 618 133 620 142 c 2
 669 400 l 1
 624 400 578 401 533 401 c 1
 516 309 498 216 481 124 c 0
 481 122 481 120 481 118 c 0
 481 40 415 -1 353 -1 c 0
 296 -1 242 33 242 106 c 0xf4
 242 114 243 122 244 131 c 2
 294 402 l 1
 271 402 248 402 225 402 c 0
 217 400 209 400 202 400 c 0
 132 400 80 466 80 529 c 0
 80 569 101 608 152 628 c 0
 180 635 210 637 239 637 c 0
 266 637 293 636 320 636 c 0
 326 636 332 636 338 636 c 1
 344 670 351 704 357 738 c 1
 310 739 262 741 215 742 c 0
 207 741 200 740 193 740 c 0
 121 740 79 804 79 866 c 0
 79 923 114 977 191 977 c 0
 193 977 194 977 196 977 c 2
 401 972 l 1
 451 1225 l 2
 460 1291 481 1371 562 1378 c 0xe8
595 731 m 1
 589 699 583 667 577 635 c 1
 623 635 668 635 714 635 c 1
 720 666 726 697 732 728 c 1
 686 729 641 730 595 731 c 1
EndSplineSet
Validated: 1
EndChar

StartChar: plus
Encoding: 43 43 89
Width: 1116
Flags: HW
HStem: 562 247<143.98 430 677 938.636>
VStem: 430 247<278.646 562 809 1111.54>
LayerCount: 2
Fore
SplineSet
553 1142 m 4
 554 1142 555 1142 556 1142 c 4
 620 1142 677 1085 677 1021 c 4
 677 1020 677 1019 677 1018 c 4
 677 948 677 879 677 809 c 5
 710 809 742 809 775 809 c 4
 781 809 787 809 794 809 c 4
 809 809 825 809 841 809 c 4
 876 809 911 806 940 783 c 4
 973 760 988 725 988 689 c 4
 988 629 947 568 881 563 c 4
 856 562 831 562 806 562 c 4
 677 562 l 5
 677 533 677 503 677 474 c 4
 677 469 677 463 677 458 c 4
 677 439 678 419 678 400 c 4
 678 375 676 351 668 327 c 4
 650 276 603 253 556 253 c 4
 493 253 430 293 430 366 c 4
 430 368 430 371 430 374 c 4
 430 437 430 499 430 562 c 5
 406 562 380 562 356 562 c 4
 350 562 344 562 338 562 c 4
 317 562 295 561 274 561 c 4
 247 561 219 563 192 571 c 4
 140 589 117 635 117 681 c 4
 117 744 160 809 232 809 c 4
 234 809 236 809 239 809 c 4
 303 809 366 809 430 809 c 5
 430 866 430 924 430 981 c 4
 429 987 429 992 429 998 c 4
 429 1068 469 1142 549 1142 c 4
 550 1142 552 1142 553 1142 c 4
EndSplineSet
Validated: 1
EndChar

StartChar: hyphen
Encoding: 45 45 90
Width: 826
Flags: HW
HStem: 564 247<126.401 666.599>
VStem: 96 601<593.971 780.599>
LayerCount: 2
Fore
SplineSet
220 811 m 6
 573 811 l 5
 641 811 697 755 697 687 c 4
 697 619 641 564 573 564 c 6
 220 564 l 5
 152 564 96 619 96 687 c 4
 96 755 152 811 220 811 c 6
EndSplineSet
Validated: 1
EndChar

StartChar: slash
Encoding: 47 47 91
Width: 1002
VWidth: 1648
Flags: HW
VStem: 108 241<-107.125 41.5291> 650 262<1227.45 1413.5>
LayerCount: 2
Fore
SplineSet
349 -63 m 4
 333 -98 298 -122 261 -134 c 4
 249 -139 240 -138 228 -138 c 4
 165 -138 108 -77 108 -14 c 4
 108 -2 110 9 115 21 c 4
 293 459 472 894 650 1329 c 4
 669 1383 696 1442 759 1451 c 4
 768 1453 778 1455 787 1455 c 4
 852 1455 912 1393 912 1327 c 4
 912 1315 910 1303 905 1291 c 4
 722 839 534 389 349 -63 c 4
EndSplineSet
Validated: 1
EndChar

StartChar: parenleft
Encoding: 40 40 92
Width: 686
Flags: HW
VStem: 97 265<382.546 998.917>
LayerCount: 2
Fore
SplineSet
422 1475 m 0
 423 1475 423 1475 424 1475 c 0
 498 1475 553 1408 553 1340 c 0
 553 1319 547 1297 536 1278 c 0
 414 1116 375 909 363 711 c 0
 363 700 362 690 362 679 c 0
 362 523 403 368 455 222 c 0
 475 163 509 111 541 59 c 0
 549 42 553 25 553 9 c 0
 553 -64 479 -123 408 -123 c 0
 369 -123 331 -106 306 -63 c 0
 167 128 109 368 97 602 c 0
 97 615 97 628 97 641 c 0
 97 856 129 1075 221 1270 c 0
 268 1353 310 1470 422 1475 c 0
EndSplineSet
Validated: 1
EndChar

StartChar: parenright
Encoding: 41 41 93
Width: 686
Flags: HW
VStem: 276 265<413.083 1030.22>
LayerCount: 2
Fore
SplineSet
216 -63 m 0
 215 -63 215 -63 214 -63 c 0
 140 -63 85 4 85 72 c 0
 85 93 91 115 102 134 c 0
 224 296 263 503 275 701 c 0
 275 712 276 722 276 733 c 0
 276 889 235 1044 183 1190 c 0
 163 1249 129 1301 97 1353 c 0
 89 1370 85 1387 85 1403 c 0
 85 1476 159 1535 230 1535 c 0
 269 1535 307 1518 332 1475 c 0
 471 1284 529 1045 541 811 c 0
 541 798 541 785 541 772 c 0
 541 557 509 337 417 142 c 0
 370 59 328 -58 216 -63 c 0
EndSplineSet
Validated: 1
EndChar

StartChar: asterisk
Encoding: 42 42 94
Width: 990
Flags: HW
VStem: 393 186<196.375 428 765 1027.5>
LayerCount: 2
Fore
SplineSet
486 1041 m 0
 487 1041 487 1041 488 1041 c 0
 532 1041 572 1006 578 962 c 1
 579 938 579 913 579 889 c 0
 579 862 579 836 579 809 c 0
 579 794 579 779 579 764 c 1
 628 794 676 823 725 853 c 1
 743 867 761 874 779 874 c 0
 830 874 874 822 874 772 c 0
 874 748 864 725 840 707 c 1
 781 669 719 633 659 596 c 1
 684 580 709 565 734 549 c 0
 773 522 816 501 852 470 c 0
 869 453 876 434 876 414 c 0
 876 364 831 314 780 314 c 0
 764 314 748 319 732 330 c 0
 681 363 630 395 579 428 c 1
 579 411 579 393 579 376 c 0
 579 369 579 363 579 356 c 0
 579 340 579 323 579 307 c 0
 579 284 578 262 572 239 c 0
 559 200 524 183 489 183 c 0
 442 183 393 214 393 268 c 0
 393 270 393 272 393 274 c 0
 393 328 393 381 393 435 c 1
 373 423 352 410 332 398 c 0
 290 375 252 343 205 329 c 0
 199 328 192 327 186 327 c 0
 134 327 99 377 99 425 c 0
 99 455 112 484 143 500 c 0
 198 533 252 567 307 600 c 1
 284 614 262 629 239 643 c 0
 199 670 154 690 121 726 c 0
 108 742 103 759 103 776 c 0
 103 826 150 874 200 874 c 0
 216 874 232 869 247 858 c 0
 296 827 344 796 393 765 c 1
 393 815 393 864 393 914 c 1
 392 919 392 925 392 930 c 0
 392 984 420 1041 483 1041 c 0
 484 1041 485 1041 486 1041 c 0
EndSplineSet
Validated: 1
EndChar

StartChar: ampersand
Encoding: 38 38 95
Width: 1272
Flags: HW
HStem: -16 249<406.547 646.925> 1117 248<457.44 621.562>
VStem: 96 275<328.374 479.621> 148 274<933.115 1086.69> 653 280<931.772 1101.92>
LayerCount: 2
Fore
SplineSet
471 534 m 1xe8
 411 488 371 444 371 356 c 0
 371 351 371 345 371 340 c 0
 372 333 384 298 409 274 c 0
 433 250 463 234 502 233 c 0
 504 233 506 233 508 233 c 0
 561 233 620 257 681 299 c 1
 615 373 543 453 471 534 c 1xe8
538 1117 m 1
 500 1114 466 1098 457 1088 c 0
 429 1060 422 1042 422 1023 c 0
 422 1022 422 1020 422 1019 c 0xd8
 424 998 437 959 492 900 c 0
 501 891 511 878 520 869 c 0
 536 878 550 886 561 893 c 0
 599 918 617 931 651 1002 c 0
 652 1004 653 1008 653 1014 c 0
 653 1037 644 1081 622 1099 c 0
 613 1106 582 1117 547 1117 c 0
 544 1117 541 1117 538 1117 c 1
556 1365 m 0
 643 1365 731 1344 804 1285 c 0
 889 1216 933 1125 933 1033 c 0
 933 988 923 944 902 902 c 0
 853 801 786 733 719 690 c 0
 711 685 704 681 697 677 c 1
 759 608 819 540 876 475 c 1
 904 503 932 530 960 554 c 0
 985 574 1017 588 1053 588 c 0
 1093 588 1129 571 1154 547 c 0
 1177 525 1190 495 1190 463 c 0
 1190 427 1173 395 1146 372 c 0
 1128 357 1094 320 1050 277 c 1
 1070 254 1127 189 1127 189 c 2
 1145 168 1156 141 1156 112 c 0
 1156 73 1135 37 1103 14 c 0
 1080 -2 1051 -12 1019 -12 c 0
 975 -12 936 6 911 35 c 2
 911 35 864 89 851 104 c 1
 759 39 646 -16 510 -16 c 0
 504 -16 498 -15 492 -15 c 0
 373 -12 273 40 207 105 c 0
 142 170 102 245 97 328 c 0
 97 336 96 343 96 351 c 0xe8
 96 527 205 647 297 723 c 1
 293 728 288 734 284 738 c 0
 203 824 153 913 148 1007 c 0
 148 1011 148 1014 148 1018 c 0
 148 1107 192 1190 250 1251 c 0
 323 1327 422 1358 520 1364 c 0
 532 1365 544 1366 556 1365 c 0
EndSplineSet
Validated: 1
EndChar

StartChar: quotesingle
Encoding: 39 39 96
Width: 442
VWidth: 1648
Flags: HW
HStem: 946 426
VStem: 87 264<1138.07 1333.52>
LayerCount: 2
Fore
SplineSet
220 1372 m 4
 271 1372 322 1340 341 1292 c 4
 348 1275 351 1260 351 1243 c 4
 351 1214 343 1183 336 1156 c 4
 326 1112 305 1074 278 1040 c 4
 251 1004 222 970 186 946 c 4
 171 934 150 941 150 960 c 4
 150 1008 176 1052 186 1098 c 4
 196 1120 165 1115 153 1125 c 4
 112 1144 87 1187 87 1231 c 4
 87 1238 87 1243 87 1248 c 4
 97 1313 152 1372 220 1372 c 4
EndSplineSet
Validated: 1
EndChar

StartChar: quotedbl
Encoding: 34 34 97
Width: 738
VWidth: 1648
Flags: HW
HStem: 946 426
VStem: 57 264<1138.07 1333.52> 417 264<1138.07 1333.52>
LayerCount: 2
Fore
SplineSet
190 1372 m 0
 241 1372 292 1340 311 1292 c 0
 318 1275 321 1260 321 1243 c 0
 321 1214 313 1183 306 1156 c 0
 296 1112 275 1074 248 1040 c 0
 221 1004 192 970 156 946 c 0
 141 934 120 941 120 960 c 0
 120 1008 146 1052 156 1098 c 0
 166 1120 135 1115 123 1125 c 0
 82 1144 57 1187 57 1231 c 0
 57 1238 57 1243 57 1248 c 0
 67 1313 122 1372 190 1372 c 0
550 1372 m 0
 601 1372 652 1340 671 1292 c 0
 678 1275 681 1260 681 1243 c 0
 681 1214 673 1183 666 1156 c 0
 656 1112 635 1074 608 1040 c 0
 581 1004 552 970 516 946 c 0
 501 934 480 941 480 960 c 0
 480 1008 506 1052 516 1098 c 0
 526 1120 495 1115 483 1125 c 0
 442 1144 417 1187 417 1231 c 0
 417 1238 417 1243 417 1248 c 0
 427 1313 482 1372 550 1372 c 0
EndSplineSet
Validated: 1
EndChar

StartChar: plusminus
Encoding: 177 177 98
Width: 1222
VWidth: 1648
Flags: HW
HStem: 233 150<677.691 1135.14> 978 150<55.6652 240 390 549.154> 1343 20G<824.5 880.5>
VStem: 240 150<835.702 978 1128 1324.17> 293 157<-2.24179 157.087> 756 177<1168.07 1330.47>
LayerCount: 2
Fore
SplineSet
746 383 m 2xe4
 1066 383 l 1
 1107 383 1142 349 1142 308 c 0
 1142 267 1107 233 1066 233 c 2
 746 233 l 1
 705 233 671 267 671 308 c 0
 671 349 705 383 746 383 c 2xe4
315 1331 m 0
 316 1331 315 1331 316 1331 c 0
 355 1331 390 1296 390 1257 c 0
 390 1256 390 1256 390 1255 c 0
 390 1212 390 1171 390 1128 c 1xf4
 410 1128 430 1128 450 1128 c 0xec
 454 1128 457 1128 461 1128 c 0
 470 1128 480 1128 490 1128 c 0
 511 1128 532 1126 550 1112 c 0
 570 1098 579 1077 579 1055 c 0
 579 1018 554 982 514 979 c 0
 499 978 483 978 468 978 c 0
 390 978 l 1
 390 960 390 942 390 924 c 0
 390 921 390 918 390 915 c 0
 390 903 391 891 391 879 c 0
 391 864 390 850 385 835 c 0
 374 804 345 790 316 790 c 0
 278 790 240 815 240 859 c 0
 240 860 240 862 240 864 c 0
 240 902 240 940 240 978 c 1
 225 978 210 978 195 978 c 0
 191 978 188 978 184 978 c 0
 171 978 158 977 145 977 c 0
 129 977 111 978 95 983 c 0
 63 994 49 1022 49 1050 c 0
 49 1088 75 1128 119 1128 c 0
 120 1128 122 1128 124 1128 c 0
 163 1128 201 1128 240 1128 c 1
 240 1163 240 1198 240 1233 c 0xf4
 239 1237 239 1239 239 1243 c 0
 239 1286 263 1331 312 1331 c 0
 313 1331 314 1331 315 1331 c 0
859 1363 m 0
 902 1363 933 1325 933 1287 c 0
 933 1278 933 1269 929 1260 c 0
 772 870 607 450 450 60 c 1
 428 0 403 -10 365 -10 c 0
 327 -10 293 12 293 55 c 0xec
 293 64 293 76 297 87 c 0
 445 459 608 861 756 1233 c 0
 781 1282 790 1363 859 1363 c 0
EndSplineSet
Validated: 1
EndChar
